<?xml version="1.0" encoding="UTF-8"?>
<svg id="Layer_1" data-name="Layer 1" xmlns="http://www.w3.org/2000/svg" width="531.2" height="709.5" viewBox="0 0 531.2 709.5">
  <defs>
    <style>
      .cls-1 {
        fill: #000;
      }

      .cls-1, .cls-2 {
        stroke-width: 0px;
      }

      .cls-2 {
        fill: #fff;
      }
    </style>
  </defs>
  <path class="cls-1" d="M402.6,521.07h-11.44c-1.42-10.92-7.47-19.63-13.07-28.67-10.47-16.88-26.12-24.98-45.03-28.23-12.41-2.13-24.56-1.32-36.5,2.58-3.98,1.3-7.3,1.51-11.18-1.2-2.92-2.03-7.16-2.83-10.86-2.95-11.64-.36-23.31-.13-35.84-.13,0-2.96,0-5.03,0-7.1,0-66.16,0-132.31,0-198.47,0-9.68-3.61-12.96-13.2-12.93-35.16.1-70.32.1-105.48-.01-11.49-.04-14.52,2.65-14.56,14.23-.18,51.66-.32,103.31-.46,154.97-.04,15.98,0,31.96,0,48.1h-47.67c0-4.08,0-7.65,0-11.22-.03-49.49-.09-98.97-.08-148.46,0-9,.23-18,.53-26.99.05-1.49.54-3.37,1.54-4.35,9.75-9.55,19.65-18.95,29.52-28.38,32.87-31.42,65.87-62.71,98.59-94.28,23.73-22.9,47.09-46.17,70.61-69.28.71-.7,1.34-1.48,1.98-2.25,5.09-6.12,5.58-6.2,11.39-.48,42.77,42.02,85.5,84.09,128.28,126.1,19.73,19.37,39.18,39.06,59.56,57.72,6.16,5.64,7.92,11.02,7.79,18.77-.36,22.49-.04,44.99,0,67.49,0,.81-.07,1.61-.13,2.82-17.85-1.16-33.68,5.32-49.91,12.29-.13-1.21-.34-2.25-.34-3.29,0-34.16.04-68.32.06-102.48,0-.5,0-1,0-1.5-.11-8.06-1.7-9.73-9.65-9.71-27.16.07-54.33.23-81.49.27-9.83.02-19.66-.28-29.49-.27-7.54.01-10.69,3.26-10.7,10.66-.04,38.99-.09,77.98-.1,116.97,0,8.18,2.22,10.62,10.57,10.86,12.65.37,25.31.71,37.97.62,19.66-.14,39.31-.66,58.97-1.01.79-.01,1.58.09,2.86.17-11,22.44-13.63,46.27-13.17,70.3.47,24.38,11.32,46.21,20.13,68.71Z"/>
  <path class="cls-1" d="M382.28,105.8c.94-8.39,1.75-15.68,2.67-23.9h64.89c.13,1.51.5,3.76.49,6-.08,25.65-.04,51.31-.45,76.96-.11,7.11,1.64,12.34,7.04,17.5,20.11,19.21,39.67,39.01,59.39,58.64,7.79,7.76,7.96,12.47.44,20.44-3.93,4.16-7.24,9.1-13.64,10.36-5.49,1.08-10,.49-14.14-3.67-13.64-13.68-27.48-27.17-41.23-40.75-39.71-39.22-79.37-78.49-119.12-117.66-19.1-18.82-38.39-37.46-57.57-56.21-4.65-4.54-5.49-4.68-10.17-.13-31.51,30.67-62.93,61.42-94.49,92.03-31.44,30.5-63.04,60.84-94.51,91.31-10.53,10.19-20.83,20.61-31.32,30.84-7.42,7.24-11.21,7.45-19.56,1.36-1.48-1.08-2.92-2.22-4.27-3.46-10.97-10.05-11.13-16.03-.66-26.38,57.35-56.69,114.68-113.4,172.07-170.05,20.62-20.36,41.39-40.58,62.09-60.86.71-.7,1.44-1.39,2.18-2.06,9.38-8.48,17.63-8.09,26.64.91,23.45,23.44,46.87,46.9,70.56,70.1,8.8,8.62,18.31,16.51,27.52,24.71,1.21,1.08,2.58,1.99,5.16,3.98Z"/>
  <path class="cls-1" d="M363.05,551.96c-2.7-2.74-4.52-5.18-6.88-6.89-9.74-7.07-17.67-15.71-22.8-26.6-4.41-9.35-4.76-9.82-15.46-9.03-2.27,6.66-7.64,9.42-14.06,11.19-2.26.62-4.15,2.58-6.21,3.93,1.61,1.92,2.94,4.2,4.89,5.67,3.57,2.7,7.67,4.71,11.25,7.4,5.56,4.19,6.79,9.44,3.97,15.91-2,4.58-4.4,8.97-6.39,13.55-2.28,5.26-2.94,10.41-1.49,16.41,10.63,43.94-19.33,89.94-69.56,86.2,1.83-6.01,3.67-12.05,5.77-18.94,1.92-.23,5.04-.36,8.04-1,18.89-4.07,33.51-20.59,35.75-40.27.21-1.82.38-3.65.56-5.47.76-7.76-.11-14.6-7.04-20.02-8.2-6.42-14.79-15.33-23.66-20.39-20.06-11.45-37.49-6.89-52.13,10.05-10.51,12.16-14.38,36.68.1,53.06,4.06,4.6,7.69,8.12,14.53,7.8,6.37-.29,11.63,3,14.19,9.22,2.64,6.42,2.42,12.9-2.02,18.44-4.64,5.79-10.3,10.1-18.5,8.22-7.8-1.79-11.4-7.28-13.33-14.58-.64-2.4-2.01-5.28-3.95-6.57-31.72-21.08-33.92-77.02,4.39-101.93,7.55-4.91,16.16-8.38,24.61-11.67,5.12-1.99,8.81-5.05,12.02-9.2,3.26-4.2,6.48-8.47,10.1-12.35,5.58-5.98,12.54-6.46,19.76-3.66,3.38,1.31,6.35,3.66,9.7,5.05,1.94.8,5.06,1.6,6.22.65,1.26-1.03,1.73-4.44,1.03-6.2-3.35-8.33-.6-15.35,4.04-22.01,1.19-1.71,2.91-3.36,4.76-4.28,14.49-7.15,29.9-9.87,44.88-3.37,9.67,4.2,19.68,9.42,24.93,19.99,1.98,3.98,4.58,7.75,7.41,11.2,4.2,5.12,2.72,10.76,1.9,16.22-.52,3.46-2.54,6.67-3.31,10.12-.4,1.8-.16,4.35.9,5.68.84,1.06,3.58,1.45,5.1.96,4.74-1.53,9.36-3.48,13.91-5.53,8.14-3.67,14.15-1.72,18.95,6.01,4.56,7.35,9.28,14.61,14.21,21.71,1.09,1.57,3.27,3,5.14,3.32,47.21,7.87,76.15,64.11,43.33,108.09-1.76,2.36-3.78,4.52-5.23,6.23-4.06-5.67-8.01-11.19-12.57-17.56-.16.33.19-.74.8-1.64,16.27-24.13,9.48-57.91-22.59-72.89-.9-.42-2.03-.63-2.67-1.3-1.45-1.52-2.66-3.26-4.88-6.06-8.51,2.34-19.12,4.15-28.84,8.13-34.75,14.24-41.06,57.86-11.83,81.39,10.07,8.11,22.12,11.53,35.15,8.99,2.44-.48,5.14-2.37,6.65-4.4,9.01-12.16,17.4-10.57,28.13-4.04,5.92,3.6,7.1,18.72,2.84,25.52-5.3,8.46-14.01,11.49-22.3,7.02-4.09-2.2-7.58-2.31-12.09-1.54-24.37,4.12-55.05-4.72-71.97-34.98-8.26-14.79-9.02-30.4-6.94-46.53.59-4.58,2.32-9.01,2.82-13.59.33-3-.04-6.34-1.08-9.17-2.06-5.6-4.79-10.96-7.25-16.42-4.53-10.05-3.13-15.51,6.01-21.74,5.48-3.74,11.23-7.09,18.3-11.51ZM343.21,494.83c-.03-.74-.07-1.48-.1-2.22-3-1.08-6.01-3.07-9-3.06-8.52.04-17.1.43-25.53,1.6-5.44.76-10.11,3.75-10.21,10.34-.02,1.25.58,3.16,1.5,3.66,2.77,1.51,11.95-.83,13.12-3.86,2.46-6.36,6.72-5.38,11.65-4.22,3.21.76,6.65,1.42,9.86,1.04,2.99-.35,5.81-2.14,8.71-3.29ZM362.97,523.35c-.43-7.93-6.35-13.16-9.75-19.61-.16-.31-2.28-.12-2.96.46-2.27,1.93-4.53,3.97-6.3,6.34-.72.97-.8,3.35-.1,4.3,3.73,5.08,7.73,9.97,11.79,14.79.84,1,2.78,2.28,3.47,1.94,1.46-.73,2.76-2.28,3.49-3.8.6-1.25.29-2.93.38-4.42ZM447.92,689.87c.02-3.92-2.96-7.46-6.36-7.56-3.33-.09-6.67,3.65-6.57,7.35.1,3.53,3.23,6.67,6.8,6.47,3.82-.21,6.04-2.28,6.13-6.27ZM226.81,652.93c.07-4.23-2.88-7.52-6.33-7.69-3.54-.17-6.77,2.98-6.74,6.56.03,3.39,3.31,6.46,7.01,6.4,3.79-.06,5.74-2.16,6.06-5.27ZM265.3,540.95c3.43-.5,6.14-1.94,6.17-5.84.03-3.69-3.63-7.53-6.73-7.45-3.07.08-6.11,3.75-6.1,7.36.01,3.33,3.04,6.02,6.66,5.93ZM365.25,588.97c1.38-2.3,3.38-4.45,3.96-6.94.66-2.81-4.75-7.71-7.74-6.87-1.86.52-4.06,2.85-4.51,4.75-.8,3.39,3.88,8.32,8.29,9.06ZM399.11,566.54c-.18-5.48-4.05-9.7-7.22-9.36-3.64.4-4.44,3.1-4.41,6.14.03,3.65,3.47,7.33,6.66,6.54,2.11-.52,3.85-2.54,4.97-3.33ZM293.41,557.76c.92-1.34,2.75-2.87,3.01-4.63.55-3.8-2.53-7.84-5.31-7.91-2.82-.07-7.07,3.99-6.78,6.93.47,4.7,4.5,4.54,9.08,5.61ZM374.83,569.69c-1.8,2.03-2.86,3.22-3.92,4.41,1.51,1.05,2.92,2.58,4.58,2.94.93.2,2.28-1.54,3.44-2.4-1.13-1.37-2.26-2.73-4.1-4.95Z"/>
  <path class="cls-1" d="M221.28,460.99h-99.34v-199.41h99.34v199.41ZM197.83,343.93c-7.86-.01-11.15,2.98-11.12,10.13.03,7.18,4.39,11.46,11.6,11.39,6.69-.06,10.52-3.89,10.56-10.56.04-7.42-3.51-10.94-11.04-10.96Z"/>
  <path class="cls-1" d="M398.97,437.48c.73-7.95.71-16.05,2.32-23.82,6.69-32.13,20.86-40.76,48.36-48.23,24.07-6.54,44.64,2.58,63.01,17.06,10.78,8.5,15.17,21.18,17.09,34.56,5.18,36.07-3.96,69.39-20.22,101.08-6.61,12.88-16.82,22.87-30.55,28.24-15.86,6.2-30.37,3.53-42.88-8.35-10.31-9.79-18.35-21.2-22.68-34.77-5-15.65-9.76-31.42-13.71-47.36-1.43-5.79-.23-12.24-.23-18.39-.17,0-.34-.01-.51-.02ZM438.97,464.53c3.62-1.28,8.98-2.58,13.77-5.03,5.21-2.67,6.43-11.45,1.96-14.52-8.76-6.03-18.61-9.81-29.45-8.7-7.46.77-11.19,8.14-7.99,14.93,3.92,8.31,11.15,11.9,21.71,13.32ZM514.09,448.41c-.26-8.31-8.28-13.73-16.48-11.79-5.15,1.22-10.16,3.05-15.23,4.6-4.22,1.29-7.74,3.44-8.28,8.22-.55,4.85,2.12,8.18,5.97,10.69,11.15,7.26,26.26,3.57,32.76-8.06.77-1.39,1.06-3.04,1.27-3.66ZM466.27,518.72c.01-.14.03-.27.04-.41,2.83,0,5.66.06,8.48-.01,6.01-.16,10.43-3.67,11.08-8.72.64-4.97-2.67-10.65-8.43-11.16-8.48-.76-17.17-.35-25.66.57-4.41.48-7.69,4.01-7.91,9.03-.17,3.85,3.62,8.11,8.58,9.12,4.52.92,9.2,1.08,13.81,1.57Z"/>
  <path class="cls-1" d="M31.82,477.57h246.83c-4.49,7.01-8.23,12.85-12.34,19.27-.24-.03-1.36-.08-2.46-.3-13.51-2.71-24.6.9-33.12,12.09-1.12,1.47-3.8,2.56-5.71,2.5-29.6-.91-59.2-2.18-88.8-3.07-32.94-1-65.9-1.75-98.85-2.44-4.06-.08-5.66-1.43-5.59-5.46.14-7.77.04-15.55.04-22.58Z"/>
  <path class="cls-1" d="M200.57,527.4c-1.42,1.26-2.66,2.89-4.3,3.73-11.88,6.1-21.38,14.56-27.43,26.66-.46.91-1.88,1.57-2.98,1.88-1.25.35-2.64.21-3.97.22-52.13.23-104.26.45-156.39.69-2.76.01-4.97-.21-5-3.85-.07-8.65-.22-17.31-.5-25.96-.15-4.61,1.62-6.56,6.43-6.48,21.8.36,43.6.56,65.4.68,29.98.17,59.97.24,89.95.34,10.83.04,21.66,0,32.48.07,1.93.01,3.86.39,5.79.6.17.47.34.94.5,1.41Z"/>
  <path class="cls-1" d="M466.37,67.19c-2.12,0-3.58,0-5.05,0-27.3-.02-54.61-.16-81.91.04-5.07.04-7.35-1.45-7.28-6.6.08-5.65-.19-11.31-.27-16.97-.06-4.13,2.69-4.84,6.01-4.86,15.98-.12,31.96-.23,47.94-.4,11.15-.12,22.3-.32,33.46-.48,6.76-.09,8.41,1.37,8.24,8.06-.18,6.94-.73,13.87-1.13,21.21Z"/>
  <path class="cls-1" d="M342.68,365.94h-39.95v-44.77h39.95v44.77Z"/>
  <path class="cls-1" d="M399,365.55h-38.78v-44.84h38.78v44.84Z"/>
  <path class="cls-1" d="M342.85,304h-40.71c0-13.33-.05-26.43.11-39.52.01-.98,1.57-2.77,2.44-2.79,12.61-.18,25.21-.13,38.17-.13v42.44Z"/>
  <path class="cls-1" d="M359.88,261.53h39.27v42.36h-39.27v-42.36Z"/>
  <path class="cls-2" d="M343.21,494.83c-2.9,1.15-5.72,2.94-8.71,3.29-3.21.38-6.65-.28-9.86-1.04-4.93-1.17-9.19-2.14-11.65,4.22-1.17,3.02-10.35,5.36-13.12,3.86-.92-.5-1.52-2.41-1.5-3.66.1-6.59,4.77-9.58,10.21-10.34,8.43-1.17,17.01-1.56,25.53-1.6,3-.01,6,1.98,9,3.06.03.74.07,1.48.1,2.22Z"/>
  <path class="cls-2" d="M362.97,523.35c-.09,1.49.22,3.18-.38,4.42-.73,1.52-2.03,3.07-3.49,3.8-.68.34-2.63-.95-3.47-1.94-4.06-4.82-8.06-9.71-11.79-14.79-.7-.95-.62-3.33.1-4.3,1.77-2.37,4.04-4.41,6.3-6.34.68-.58,2.8-.77,2.96-.46,3.4,6.45,9.32,11.68,9.75,19.61Z"/>
  <path class="cls-2" d="M447.92,689.87c-.09,3.99-2.31,6.05-6.13,6.27-3.57.2-6.69-2.94-6.8-6.47-.11-3.7,3.24-7.44,6.57-7.35,3.4.09,6.38,3.64,6.36,7.56Z"/>
  <path class="cls-2" d="M226.81,652.93c-.31,3.11-2.27,5.21-6.06,5.27-3.7.06-6.97-3.02-7.01-6.4-.04-3.57,3.2-6.72,6.74-6.56,3.44.16,6.39,3.46,6.33,7.69Z"/>
  <path class="cls-2" d="M265.3,540.95c-3.62.1-6.65-2.6-6.66-5.93-.01-3.61,3.03-7.29,6.1-7.36,3.1-.08,6.76,3.76,6.73,7.45-.03,3.91-2.74,5.34-6.17,5.84Z"/>
  <path class="cls-2" d="M365.25,588.97c-4.4-.75-9.09-5.68-8.29-9.06.45-1.9,2.65-4.23,4.51-4.75,2.98-.83,8.39,4.06,7.74,6.87-.58,2.49-2.59,4.64-3.96,6.94Z"/>
  <path class="cls-2" d="M399.11,566.54c-1.12.79-2.86,2.81-4.97,3.33-3.19.78-6.63-2.89-6.66-6.54-.02-3.04.78-5.74,4.41-6.14,3.17-.35,7.04,3.88,7.22,9.36Z"/>
  <path class="cls-2" d="M293.41,557.76c-4.58-1.06-8.61-.9-9.08-5.61-.29-2.94,3.97-7,6.78-6.93,2.78.07,5.86,4.11,5.31,7.91-.26,1.76-2.09,3.28-3.01,4.63Z"/>
  <path class="cls-2" d="M374.83,569.69c1.84,2.22,2.97,3.58,4.1,4.95-1.16.86-2.52,2.6-3.44,2.4-1.66-.36-3.07-1.9-4.58-2.94,1.06-1.19,2.12-2.38,3.92-4.41Z"/>
  <path class="cls-2" d="M197.83,343.93c7.54.01,11.09,3.53,11.04,10.96-.04,6.67-3.87,10.5-10.56,10.56-7.21.07-11.57-4.21-11.6-11.39-.03-7.14,3.25-10.14,11.12-10.13Z"/>
  <path class="cls-2" d="M438.97,464.53c-10.57-1.43-17.8-5.01-21.71-13.32-3.2-6.8.53-14.16,7.99-14.93,10.84-1.12,20.7,2.67,29.45,8.7,4.46,3.07,3.25,11.85-1.96,14.52-4.78,2.45-10.15,3.75-13.77,5.03Z"/>
  <path class="cls-2" d="M514.09,448.41c-.21.62-.5,2.27-1.27,3.66-6.5,11.63-21.61,15.33-32.76,8.06-3.85-2.51-6.52-5.84-5.97-10.69.55-4.79,4.07-6.94,8.28-8.22,5.07-1.55,10.08-3.38,15.23-4.6,8.21-1.94,16.23,3.48,16.48,11.79Z"/>
  <path class="cls-2" d="M466.27,518.72c-4.61-.49-9.29-.65-13.81-1.57-4.96-1.01-8.75-5.28-8.58-9.12.22-5.02,3.51-8.55,7.91-9.03,8.49-.93,17.18-1.33,25.66-.57,5.76.51,9.07,6.19,8.43,11.16-.65,5.05-5.07,8.55-11.08,8.72-2.83.08-5.66.01-8.48.01-.01.14-.03.27-.04.41Z"/>
</svg>