<?xml version="1.0" encoding="UTF-8"?>
<svg id="Layer_1" data-name="Layer 1" xmlns="http://www.w3.org/2000/svg" width="473.54" height="319" viewBox="0 0 473.54 319">
  <defs>
    <style>
      .cls-1 {
        fill: #000;
      }

      .cls-1, .cls-2, .cls-3 {
        stroke-width: 0px;
      }

      .cls-2 {
        fill: none;
      }

      .cls-3 {
        fill: #fff;
      }
    </style>
  </defs>
  <g>
    <path class="cls-2" d="M0,319h.61c-.2-.15-.41-.31-.61-.46v.46Z"/>
    <path class="cls-2" d="M462.3,319h11.24v-8.88c-3.7,3.04-7.45,6-11.24,8.88Z"/>
    <path class="cls-2" d="M173.69,292.64c35.98-30.86,72.55-62.22,109.46-93.88-37.05-20.72-73-40.82-109.26-61.09,27.46-20.55,54.54-40.8,82.46-61.69-18.73-9.45-36.38-18.36-54.28-27.39.84-1.72,1.02-2.59,1.55-3.09,10.76-10.43,21.45-20.94,32.41-31.16,4.81-4.49,6.37-4.43,10.56.64,4.1,4.97,7.67,10.43,10.98,15.97,1.95,3.28,3.87,5.43,7.86,6.6,17.52,5.14,34.89,10.83,53.33,16.64-3,17.75-5.89,34.89-8.9,52.67-.27-.19.18.34.74.48,32.35,8.35,64.72,16.6,97.04,25.08,2.65.69,5.7,2.25,7.25,4.38,9.29,12.76,18.16,25.84,27.3,38.71,1.04,1.46,2.74,2.89,4.41,3.38,8.97,2.59,17.95,5.12,26.93,7.65v-16.23c-4.71-1.41-9.41-2.8-14.12-4.21-1.57-.47-3.26-1.68-4.18-3.03-6.37-9.32-12.48-18.81-18.81-28.16-3.07-4.54-6.31-8.98-9.7-13.3-1.13-1.44-2.81-3-4.5-3.39-20.07-4.65-40.2-9.07-60.29-13.61-9.57-2.16-19.09-4.49-28.66-6.63-3.4-.76-4.37-2.2-3.72-5.93,2.16-12.45,3.93-24.98,5.55-37.52,1.11-8.57.78-8.28-7.36-11.21-16.43-5.92-32.82-11.95-49-18.51-5.3-2.15-9.88-6.08-14.8-9.19-4.21-2.66-8.38-5.39-12.66-7.92-2.81-1.66-4.73-3.61-3.92-7.69h-31.94c.85.37,1.69.81,2.53,1.12-1,1.77-1.6,4.06-3.07,5.24-17.35,13.78-34.83,27.39-52.27,41.05-.63.5-1.24,1.02-2.55,2.1,16.33,11.97,34.84,19.31,52.81,30.67-29.2,19.43-57.8,38.46-87.49,58.22,34.94,21.95,68.83,43.25,103.11,64.78-34.83,27.56-69.47,54.97-105.18,83.23,8.64,10.64,17.33,21.83,26.53,32.58h47.94c-2.88-3.3-5.76-6.61-8.64-9.9-5.12-5.85-10.64-11.36-15.44-16.46Z"/>
    <path class="cls-1" d="M251.29,7.69c4.28,2.54,8.45,5.26,12.66,7.92,4.92,3.11,9.5,7.04,14.8,9.19,16.18,6.56,32.57,12.59,49,18.51,8.13,2.93,8.47,2.64,7.36,11.21-1.62,12.54-3.4,25.06-5.55,37.52-.65,3.73.32,5.17,3.72,5.93,9.57,2.14,19.1,4.47,28.66,6.63,20.1,4.53,40.22,8.95,60.29,13.61,1.69.39,3.36,1.94,4.5,3.39,3.39,4.31,6.63,8.75,9.7,13.3,6.32,9.35,12.44,18.84,18.81,28.16.92,1.35,2.61,2.55,4.18,3.03,4.7,1.42,9.41,2.81,14.12,4.21v-30.28c-.07-.13-.15-.24-.22-.38.07,0,.15-.02.22-.02v-21.44c-5.29-.03-10.58-.05-15.86-.08-1.33,0-2.81.31-3.96-.16-1.31-.54-2.33-1.79-3.47-2.74,1.12-.79,2.18-2.16,3.35-2.26,6.64-.56,13.29-1.16,19.94-1.39v-18.16c-31.7-.13-63.4-.25-95.11-.39-2.49-.01-5.01-.21-7.44-.69-1.08-.21-1.97-1.35-2.95-2.07,1.05-.82,2.01-2.09,3.18-2.35,2.42-.53,4.95-.67,7.44-.69,31.62-.19,63.24-.35,94.86-.52v-17.77c-34.44-.05-68.88-.11-103.31-.18-2.95,0-5.91-.43-8.86-.66-.37-.63-.74-1.26-1.1-1.89,1.66-1.36,3.12-3.32,5.02-3.93,2.79-.9,5.9-1.13,8.87-1.15,33.13-.16,66.26-.3,99.39-.44v-16.43c-36.08-.04-72.16-.08-108.24-.14-3.66,0-7.32-.19-10.99-.33-4.66-.18-7.78-2.36-9.46-8.46,43.03-1.47,85.86-1.57,128.68-1.43v-14.86c-47.23.02-94.47.03-141.7-.02-6.16,0-12.31-1.06-18.46-1.62-.1-.8-.19-1.6-.29-2.4,1.59-.66,3.15-1.8,4.78-1.9,19.28-1.14,38.55-2.53,57.85-3.04,19.48-.51,38.99-.12,58.49-.11,13.11,0,26.22,0,39.34,0V0h-226.18c-.81,4.08,1.11,6.03,3.92,7.69Z"/>
    <path class="cls-1" d="M473.54,186.52c-8.98-2.53-17.97-5.06-26.93-7.65-1.67-.48-3.38-1.92-4.41-3.38-9.14-12.88-18.01-25.95-27.3-38.71-1.54-2.12-4.6-3.68-7.25-4.38-32.32-8.47-64.69-16.73-97.04-25.08-.56-.14-1.01-.68-.74-.48,3-17.78,5.9-34.92,8.9-52.67-18.44-5.81-35.81-11.5-53.33-16.64-3.99-1.17-5.91-3.33-7.86-6.6-3.3-5.54-6.88-11-10.98-15.97-4.19-5.08-5.74-5.13-10.56-.64-10.96,10.22-21.65,20.73-32.41,31.16-.52.51-.71,1.37-1.55,3.09,17.9,9.03,35.55,17.94,54.28,27.39-27.92,20.89-55,41.14-82.46,61.69,36.26,20.28,72.21,40.37,109.26,61.09-36.91,31.66-73.48,63.02-109.46,93.88,4.8,5.1,10.32,10.6,15.44,16.46,2.88,3.3,5.76,6.6,8.64,9.9h264.53c3.79-2.88,7.54-5.85,11.24-8.88v-123.6ZM267.93,288.7c-.28,1.13-.7,2.22-1.06,3.32-3.15,9.44-5.75,11.2-15.46,8.64-4.4-1.16-8.47-3.75-12.5-6.02-2.43-1.36-2.9-3.55-.74-5.77,7.67-7.93,15.83-15.23,26.24-19.43,2.2-.89,4.66-1.14,7-1.69.47.43.94.87,1.4,1.3-1.62,6.55-3.22,13.1-4.86,19.65ZM353.98,298.53c-1.39-1.9-2.97-3.7-4.15-5.72-7.64-13.07-15.18-26.2-22.77-39.3-6-10.36-11.86-20.82-18.13-31.02-2.02-3.28-1.78-6.07-.75-9.41,4.49-14.43,8.83-28.91,13.26-43.49-21.31-6.5-42.03-12.81-63.17-19.26.43-14.53,17.39-62.83,24.47-66.75-1.08,6.3-2.04,11.7-2.94,17.12-1.82,10.97-3.55,21.97-5.46,32.92-.62,3.57.38,5.39,4.06,6.37,19.42,5.19,38.73,10.75,58.18,15.8,3.78.98,4.64,2.47,3.73,5.82-4.61,16.94-9.28,33.87-13.71,50.85-.55,2.09-.32,4.71.43,6.77,5.57,15.31,11.51,30.48,17.04,45.8,3.67,10.16,6.86,20.49,10.26,30.75.24.71.41,1.44-.36,2.74ZM406.79,219.75c-4.22,1.52-8.16,3.82-12.41,5.21-1.53.5-4.46-.05-5.3-1.19-5.31-7.24-10.23-14.77-15.22-22.24-.64-.95-1.09-2.08-1.4-3.19-1.22-4.43-.07-5.79,6.31-5.34,11.73,2.52,23.61,7.63,30.34,20.83,1.62,3.18,1.03,4.71-2.33,5.92Z"/>
    <path class="cls-1" d="M228.49,203.19c-34.27-21.53-68.17-42.83-103.11-64.78,29.69-19.76,58.29-38.79,87.49-58.22-17.97-11.36-36.48-18.7-52.81-30.67,1.31-1.08,1.92-1.61,2.55-2.1,17.44-13.66,34.93-27.27,52.27-41.05,1.48-1.17,2.07-3.47,3.07-5.24-.85-.31-1.69-.75-2.53-1.12H0v10.28c34.36-.04,68.72-.04,103.08-.04,5.99,0,12,.37,17.94,1.07,1.84.22,4.73,1.89,4.96,3.27.59,3.47-2.52,4.13-5.3,4.4-1.49.15-3,.11-4.49.11-38.73-.02-77.47-.04-116.2-.06v14.6c50.83.33,98.87,1.37,102.16,2.91-1.77,5.77-6.32,7.35-11.58,7.44-14.32.25-28.64.45-42.97.44-15.87-.02-31.74-.05-47.62-.08v15.58c20.22.09,40.47.31,60.75.65-1.19,6.18-4.5,8.48-9.6,8.61-9.99.25-19.99.71-29.98.72-7.06,0-14.11,0-21.17,0v16.19c9.72,0,19.44,0,29.16,0,3.49,0,7.02.22,10.44.85,1.11.2,2.74,2.1,2.65,3.09-.1,1.08-1.82,2.69-3,2.86-4.11.59-8.3.88-12.46.88-8.93-.01-17.86-.03-26.79-.05v17.9c14.34.13,28.68.25,43.02.38,1.33.01,2.75-.08,3.95.36.89.33,2.03,1.4,2.08,2.2.05.86-.85,2.19-1.69,2.6-1.29.63-2.88.89-4.34.89-14.34,0-28.68,0-43.02-.01v20.02h2.55c.17.85.33,1.69.5,2.54-1.02.33-2.03.76-3.05,1.15v21.95c26.89-13.99,53.97-27.76,82.97-38.01-8.04-16.38-15.59-31.77-23.3-47.47,17.66-5.86,31.08-17.65,45.44-28.03,5.9-4.26,12.18-8.1,18.68-11.37,1.88-.95,5.89-.09,7.52,1.44,2.32,2.18,1.12,5.32-1.51,7.25-15.25,11.24-30.53,22.44-45.83,33.61-1.32.97-2.85,1.64-5.03,2.87,8.55,16.1,17.02,32.03,25.84,48.63-4.87,2.23-9.28,4.45-13.84,6.28-19.73,7.95-39.57,15.63-59.24,23.73-9.47,3.9-18.39,9.29-28.03,12.63-1.22.42-2.44.83-3.66,1.23v142.05c.2.15.41.31.61.46h149.22c-9.2-10.75-17.89-21.94-26.53-32.58,35.71-28.26,70.34-55.67,105.18-83.23ZM141.42,64.51c-5.85,3.53-13.47,2.92-15.34,0h15.34ZM112.02,87.32c5.87-.96,11.83-1.39,17.75-2.01l.05.64c3.32,0,6.65-.19,9.95.09,1.38.12,2.68,1.21,4.01,1.86-.87,1.32-1.46,3.39-2.65,3.82-3.06,1.11-6.38,1.99-9.61,2.05-6.29.1-12.61-.31-18.89-.79-1.35-.1-2.62-1.34-3.92-2.06,1.1-1.25,2.04-3.39,3.31-3.6ZM13.98,210.44c2.8-11.74,9.48-15.87,22.61-13.96-.19,12.45-7.6,17.02-22.61,13.96ZM100.21,242.09c-9.95,16.17-19.83,32.4-30.52,48.06-5.58,8.18-12.73,15.31-19.4,22.7-1.12,1.24-3.4,1.44-5.14,2.11.04-2.02-.64-4.43.22-6,5.46-9.9,11.29-19.61,16.95-29.4,7-12.11,14.03-24.2,20.92-36.38,1.91-3.38,3.36-7.04,5.03-10.58-13.15,1.3-26.12,2.59-40.15,3.98,6.14-10.06,11.81-18.84,16.96-27.9,5.48-9.65,10.71-19.46,15.6-29.42,3.49-7.1,5.68-8,12.65-4.28,2.84,1.51,3.58,3.45,2.27,6.02-1.73,3.39-3.96,6.52-5.79,9.86-4.91,8.99-9.71,18.04-14.9,27.72,7.43-.33,13.36-.87,19.28-.77,5.69.09,11.36.85,18.5,1.43-4.7,8.67-8.24,15.98-12.47,22.86ZM145.15,197.64c-2.42,6.37-4.65,12.45-7.12,18.44-.25.59-2.01.83-3.05.77-4.11-.21-8.22-.6-12.68-.95-.32-12.26,8.5-19.6,22.85-18.26Z"/>
    <path class="cls-3" d="M344.08,265.04c-5.53-15.32-11.47-30.5-17.04-45.8-.75-2.05-.98-4.67-.43-6.77,4.43-16.99,9.1-33.91,13.71-50.85.91-3.35.04-4.84-3.73-5.82-19.45-5.05-38.77-10.61-58.18-15.8-3.69-.99-4.69-2.81-4.06-6.37,1.91-10.96,3.64-21.95,5.46-32.92.9-5.42,1.86-10.82,2.94-17.12-7.09,3.92-24.04,52.22-24.47,66.75,21.14,6.44,41.86,12.76,63.17,19.26-4.43,14.58-8.77,29.06-13.26,43.49-1.04,3.34-1.27,6.13.75,9.41,6.27,10.2,12.12,20.65,18.13,31.02,7.59,13.1,15.13,26.23,22.77,39.3,1.18,2.03,2.76,3.82,4.15,5.72.77-1.3.59-2.03.36-2.74-3.4-10.26-6.59-20.59-10.26-30.75Z"/>
    <path class="cls-3" d="M344.86,35.31c1.68,6.1,4.8,8.28,9.46,8.46,3.66.14,7.32.32,10.99.33,36.08.05,72.16.09,108.24.14v-10.35c-42.82-.14-85.66-.04-128.68,1.43Z"/>
    <path class="cls-3" d="M375.71,10.04c-19.3.51-38.57,1.9-57.85,3.04-1.62.1-3.19,1.24-4.78,1.9.1.8.19,1.6.29,2.4,6.15.57,12.31,1.62,18.46,1.62,47.23.05,94.47.04,141.7.02v-9.09c-13.11,0-26.22,0-39.34,0-19.5,0-39.01-.4-58.49.11Z"/>
    <path class="cls-3" d="M365.28,62.25c-1.9.61-3.36,2.57-5.02,3.93.37.63.74,1.26,1.1,1.89,2.95.23,5.91.66,8.86.66,34.44.07,68.88.13,103.31.18v-8.25c-33.13.14-66.26.28-99.39.44-2.97.01-6.08.25-8.87,1.15Z"/>
    <path class="cls-3" d="M371.23,87.88c-1.18.26-2.13,1.53-3.18,2.35.98.72,1.87,1.85,2.95,2.07,2.43.48,4.95.68,7.44.69,31.7.14,63.4.26,95.11.39v-6.71c-31.62.17-63.24.34-94.86.52-2.49.01-5.03.16-7.44.69Z"/>
    <path class="cls-3" d="M450.25,115.2c1.14.94,2.16,2.2,3.47,2.74,1.15.47,2.63.16,3.96.16,5.29.02,10.58.05,15.86.08v-6.63c-6.65.23-13.3.83-19.94,1.39-1.17.1-2.24,1.48-3.35,2.26Z"/>
    <path class="cls-3" d="M264.39,269.45c-10.41,4.2-18.57,11.5-26.24,19.43-2.15,2.23-1.69,4.41.74,5.77,4.04,2.26,8.11,4.86,12.5,6.02,9.71,2.56,12.31.8,15.46-8.64.37-1.1.78-2.2,1.06-3.32,1.64-6.54,3.25-13.1,4.86-19.65-.47-.43-.94-.87-1.4-1.3-2.34.55-4.8.8-7,1.69Z"/>
    <path class="cls-3" d="M378.78,193c-6.38-.45-7.53.91-6.31,5.34.31,1.11.76,2.24,1.4,3.19,4.99,7.47,9.91,15,15.22,22.24.83,1.14,3.77,1.69,5.3,1.19,4.25-1.39,8.19-3.69,12.41-5.21,3.36-1.21,3.95-2.73,2.33-5.92-6.73-13.19-18.61-18.31-30.34-20.83Z"/>
    <path class="cls-3" d="M473.54,140.01v-.4c-.07,0-.15.02-.22.02.07.13.15.25.22.38Z"/>
    <path class="cls-3" d="M31.69,162.62c19.67-8.1,39.51-15.78,59.24-23.73,4.56-1.84,8.97-4.06,13.84-6.28-8.82-16.6-17.28-32.53-25.84-48.63,2.18-1.23,3.71-1.91,5.03-2.87,15.3-11.17,30.58-22.37,45.83-33.61,2.62-1.93,3.83-5.07,1.51-7.25-1.63-1.53-5.63-2.39-7.52-1.44-6.49,3.27-12.78,7.1-18.68,11.37-14.36,10.37-27.78,22.17-45.44,28.03,7.7,15.7,15.26,31.09,23.3,47.47-29,10.25-56.08,24.02-82.97,38.01v12.8c1.22-.41,2.45-.81,3.66-1.23,9.64-3.34,18.55-8.73,28.03-12.63Z"/>
    <path class="cls-3" d="M74.9,218.58c5.19-9.68,10-18.72,14.9-27.72,1.82-3.34,4.05-6.47,5.79-9.86,1.32-2.57.58-4.51-2.27-6.02-6.97-3.72-9.17-2.81-12.65,4.28-4.89,9.96-10.12,19.77-15.6,29.42-5.15,9.07-10.81,17.84-16.96,27.9,14.03-1.39,27-2.67,40.15-3.98-1.67,3.54-3.11,7.19-5.03,10.58-6.88,12.18-13.91,24.27-20.92,36.38-5.67,9.79-11.49,19.5-16.95,29.4-.86,1.56-.19,3.98-.22,6,1.74-.68,4.02-.87,5.14-2.11,6.67-7.4,13.82-14.52,19.4-22.7,10.69-15.67,20.58-31.9,30.52-48.06,4.23-6.88,7.77-14.18,12.47-22.86-7.14-.58-12.82-1.33-18.5-1.43-5.92-.1-11.85.44-19.28.77Z"/>
    <path class="cls-3" d="M90.58,43.97c5.26-.09,9.81-1.67,11.58-7.44-3.29-1.54-51.34-2.58-102.16-2.91v10.71c15.87.03,31.74.06,47.62.08,14.32.01,28.65-.19,42.97-.44Z"/>
    <path class="cls-3" d="M120.69,18.98c2.78-.27,5.89-.93,5.3-4.4-.24-1.38-3.13-3.05-4.96-3.27-5.94-.7-11.96-1.07-17.94-1.07-34.36,0-68.72,0-103.08.04v8.75c38.73.02,77.47.04,116.2.06,1.5,0,3.01.04,4.49-.11Z"/>
    <path class="cls-3" d="M51.15,69.17c5.1-.13,8.41-2.43,9.6-8.61-20.29-.34-40.53-.56-60.75-.65v9.97c7.06,0,14.11.02,21.17,0,9.99,0,19.99-.46,29.98-.72Z"/>
    <path class="cls-3" d="M39.24,92.88c1.18-.17,2.9-1.79,3-2.86.09-.99-1.54-2.89-2.65-3.09-3.42-.63-6.95-.85-10.44-.85-9.72,0-19.44,0-29.16,0v7.63c8.93.02,17.86.04,26.79.05,4.16,0,8.34-.29,12.46-.88Z"/>
    <path class="cls-3" d="M47.36,117.14c.84-.41,1.74-1.73,1.69-2.6-.05-.8-1.19-1.88-2.08-2.2-1.2-.44-2.62-.35-3.95-.36-14.34-.13-28.68-.25-43.02-.38v6.42c14.34,0,28.68.01,43.02.01,1.46,0,3.05-.26,4.34-.89Z"/>
    <path class="cls-3" d="M2.55,138.04H0v3.69c1.02-.4,2.03-.82,3.05-1.15-.17-.85-.33-1.69-.5-2.54Z"/>
    <path class="cls-3" d="M138.03,216.07c2.48-5.98,4.71-12.07,7.12-18.44-14.35-1.33-23.18,6-22.85,18.26,4.46.35,8.57.74,12.68.95,1.04.05,2.81-.18,3.05-.77Z"/>
    <path class="cls-3" d="M13.98,210.44c15.01,3.06,22.43-1.52,22.61-13.96-13.13-1.91-19.81,2.22-22.61,13.96Z"/>
    <path class="cls-3" d="M131.52,93.77c3.23-.05,6.55-.94,9.61-2.05,1.19-.43,1.79-2.5,2.65-3.82-1.33-.65-2.63-1.74-4.01-1.86-3.3-.28-6.63-.09-9.95-.09l-.05-.64c-5.93.62-11.88,1.05-17.75,2.01-1.27.21-2.22,2.35-3.31,3.6,1.3.72,2.57,1.96,3.92,2.06,6.28.47,12.6.89,18.89.79Z"/>
    <path class="cls-3" d="M141.42,64.51h-15.34c1.88,2.92,9.5,3.53,15.34,0Z"/>
  </g>
  <rect class="cls-1" x="456.95" y="305.25" width="16.59" height="13.75"/>
</svg>