<?xml version="1.0" encoding="UTF-8"?>
<svg id="Layer_1" data-name="Layer 1" xmlns="http://www.w3.org/2000/svg" viewBox="0 0 299.56 387.26">
  <defs>
    <style>
      .cls-1 {
        fill: #000;
        stroke-width: 0px;
      }
    </style>
  </defs>
  <path class="cls-1" d="M160.36,385.98c5.17-2.93,10.33-5.86,15.5-8.8,12.68-7.22,23.54-16.51,31.52-28.78,12.69-19.52,12.95-40.42,5.83-61.82-3.67-11.05-10.01-20.63-17.8-29.25-.64-.71-1.41-1.31-2.86-2.64.86,8.04-1.94,14.07-6.71,19.23-4.72,5.1-10.51,8.28-18.27,9.16,1.53-8.22,2.84-16.15,4.5-24.01,2.71-12.84,5.65-25.63,4.2-38.9-2.55-23.28-14.04-40.96-33.65-53.49-2.93-1.87-6.1-3.38-9.18-5.02-.28-.15-.69-.06-.59-.05,3.6,6.18,7.85,12.24,10.86,18.86,6.71,14.78,5.94,29.75-.22,44.65-4.04,9.77-8.57,19.43-11.46,29.55-5.79,20.27-.47,38.42,12.77,54.48.7.84,1.38,1.7,2.19,2.69-9.75-.22-23.84-8.1-31.27-18.89-7.58-10.99-9.27-23.15-6.28-36.91-7.16,8.31-11.87,17.01-14.52,26.73-5.94,21.86-4.07,42.26,11.69,59.96,5.77,6.47,13.1,10.68,20.56,14.76,10.6,5.8,19.79,13.08,25.22,24.26.8,1.65,1.43,3.38,2.27,5.38-6.25,0-12.09.37-17.86-.07-16.9-1.3-33.33-4.99-48.86-11.83-40.47-17.82-69.07-47.03-83.11-89.3-6.51-19.59-6.88-39.52,1.81-58.88,4.06-9.03,9.84-16.77,17.7-22.88.45-.35.98-.61,2.38-1.46-1.57,3.83-2.87,6.73-3.95,9.71-4.02,11.11-5.58,22.54-3.07,34.18,3.58,16.56,15.2,26.74,33.22,29.28-2.24-3.01-4.35-5.71-6.31-8.52-10.27-14.77-11.95-31.17-8.9-48.38,1.59-8.95,4.19-17.79,4.98-26.79,1.52-17.21-8.72-31.24-24.78-35.43-1.64-.43-3.33-.66-5.4-1.06,4.94-5.06,10.88-7.05,17.11-8.38,26.14-5.56,51.92,19.99,50.02,45.67-.76,10.27-4.48,19.32-9.84,27.87-.58.93-1.14,1.87-2.04,3.34,10.11.32,18.96-1.69,26.39-8.1,15.88-13.71,19.14-34.63,7.75-52.35-3.53-5.49-8.1-10.46-12.84-15-7.34-7.03-15.04-13.75-19.05-23.33-6.97-16.63-3.38-31.81,7.46-45.57,8.14-10.34,19.01-16.75,31.37-20.81.44-.14.96-.07,1.6-.1-3.41,4.02-6.97,7.67-9.89,11.78-6.6,9.25-10.19,19.38-7.73,30.96,1.34,6.34,5.03,11.32,10.1,14.84,7.35,5.1,15.21,9.47,22.88,14.12,2.07,1.25,4.23,2.36,6.74,3.06-3.85-5.31-7.56-10.74-11.58-15.91-10.85-13.94-10.6-28.83-3.66-44.09,3.19-7.03,7.19-13.7,10.86-20.51,9.42-17.48,10.94-35-.15-53.15,11.76,4.02,21.69,9.73,29.32,18.8,9.53,11.32,14.58,24.48,13.42,39.36-.6,7.77-2.78,15.41-3.91,23.16-1.91,13.12-.07,25.58,7.55,37.45,4.66-14.89,13-26.72,25.19-35.7,12.11-8.93,25.91-12.99,41.73-13.91-19.57,15.82-28.64,35.99-28.98,60.02-.34,23.48,7.12,44.54,21.24,64.21,7.25-19.92,9.42-39.44,5.5-59.99,2.2,2.67,4.49,5.28,6.59,8.03,12.12,15.86,21.63,33.09,24.92,52.97,4.25,25.67-2.35,48.43-20.26,67.63-.48.51-.9,1.07-1.43,1.71,19.77,4.63,35.17-7.04,36.07-27.03.54-11.99-.56-18.7-4.35-30.81,2.88,3.7,6.07,7.21,8.57,11.15,9.15,14.44,12.19,30.58,9.48,47.08-9.88,60.08-46.09,97.38-102.77,116.32-5.65,1.89-11.5,3.34-17.36,4.43-5.85,1.09-11.84,1.48-17.77,2.18-.12-.36-.24-.73-.35-1.09Z"/>
</svg>