<?xml version="1.0" encoding="UTF-8"?>
<svg id="Layer_1" data-name="Layer 1" xmlns="http://www.w3.org/2000/svg" viewBox="0 0 418.86 406.47">
  <defs>
    <style>
      .cls-1 {
        fill: #000;
        stroke-width: 0px;
      }
    </style>
  </defs>
  <path class="cls-1" d="M11.98,272.29c-1.01-2.22-1.89-3.86-2.52-5.58C1.79,245.87-.34,224.19.04,202.18c.55-31.85,8.49-61.76,24.45-89.35,19.75-34.12,46.78-60.29,84.19-74.38,28.5-10.73,57.54-12.88,86.39-1.62,27.89,10.88,47.93,29.77,54.54,59.96,4.59,20.95-.1,39.77-16.91,54.31-12.93,11.19-31.21,12.43-44.04,3.07-7.48-5.45-12.12-12.6-11.21-22.35.47-5.06,2.86-9,7.52-11.31,3.54-1.75,7.06-1.56,10.2.87,3.04,2.34,4.32,5.64,3.19,9.3-.89,2.88.42,3.92,2.67,4.62,4.9,1.52,9.13.13,12.72-3.31,6.83-6.55,7.21-17.27,1.01-26.08-8.49-12.05-26.7-16.07-41.21-8.84-17.18,8.57-26.01,23.29-29.04,41.61-6.93,41.82,24.05,82.34,60.46,91.83,8.2,2.14,16.55,2.6,24.89.92,16.1-3.25,25.7-14.19,27.58-31.13.28-2.53-.23-5.78,3.5-6.01,3.68-.23,4.26,2.84,4.78,5.58,4.22,22.5,18.22,36.4,39.54,42.46,23.52,6.69,48.4-.52,62.34-19.94,4.53-6.31,7.27-13.31,8.04-21.1.3-2.99-.02-6.69,4.4-7.09,2.79-.25,4.26,2.29,5.12,7.14,4.43,24.94-5.94,44.58-23.6,60.31-40.82,36.35-87.83,43.93-138.59,25.35-19.48-7.13-37.85-17.37-56.49-26.68-23.11-11.54-47-19.51-73.22-18.99-29.14.58-55.05,9.86-77.73,28.17-.95.77-1.93,1.51-3.53,2.77Z"/>
  <path class="cls-1" d="M286.6,377.66c-39.12.23-67.47-8.23-94.53-21.78-15.96-7.99-31.7-16.46-47.94-23.84-19.64-8.93-40.38-12.82-62.06-10.44-13.35,1.46-25.8,5.6-37.56,12.02-6.57,3.59-8.25,3.28-13.21-2.24-3.76-4.18-7.5-8.37-11.19-12.61-4.4-5.06-4.23-7.73.83-11.88,32.98-27,69.96-34.01,110.73-22.11,16.2,4.73,30.73,13.06,45.47,20.94,20.52,10.97,41.34,21.24,64.37,25.91,49.17,9.96,93.36-.65,132.32-32.42,13.32-10.86,24.36-23.63,32.08-39.09,1.06-2.11,1.78-4.39,2.71-6.57,1.03-2.4,2.33-4.63,5.48-4.01,3.12.61,4.96,2.85,4.72,5.86-.6,7.81-.94,15.73-2.57,23.35-6.9,32.27-25.73,56.29-52.79,74.29-25.87,17.21-54.67,24.46-76.89,24.63Z"/>
  <path class="cls-1" d="M93.44,334.29c17.93.3,34.65,5.13,50.58,12.71,15.99,7.62,31.65,15.94,47.55,23.74,17.23,8.44,35.1,15.34,54.3,17.31,10.99,1.13,22.16.67,33.25.54,4.22-.05,8.38,1.84,9.23,5.33.9,3.74-1.19,7.98-5.54,8.94-7.39,1.63-14.94,3.11-22.47,3.48-21.78,1.06-42.41-4.4-62.11-13.13-15.05-6.67-29.69-14.26-44.42-21.61-13.19-6.58-26.38-13.01-40.87-16.46-17.69-4.22-34.93-2.9-51.99,2.93-1.53.52-3.09,1.05-4.68,1.24-3.94.47-7.29-1.49-8.46-4.74-1.17-3.26-.13-6.39,3.19-8.77,6.73-4.82,14.45-7.4,22.43-8.95,6.59-1.28,13.33-1.74,20.01-2.56Z"/>
  <path class="cls-1" d="M313.04,107.73c3.36,5.33,6.12,9.62,8.79,13.96,5.95,9.67,12.03,19.27,17.71,29.1,4.45,7.71,6.03,16.09,3.74,24.9-4.11,15.81-20.84,25.9-36.51,22.09-16.84-4.08-26.95-19.73-23.25-36.29.75-3.37,1.81-6.83,3.52-9.8,8.35-14.45,16.97-28.74,26.01-43.96ZM300.63,163.39h-.03c0-2,.45-4.14-.13-5.95-.56-1.78-2.17-3.22-3.32-4.81-1.41,1.17-3.83,2.17-4.05,3.53-.76,4.74-1.1,9.61-.85,14.4.07,1.42,2.97,4.05,3.93,3.78,1.74-.48,3.62-2.48,4.3-4.28.74-1.97.17-4.42.17-6.67Z"/>
  <path class="cls-1" d="M307.04,0c5.36,8.48,10.37,16.33,15.29,24.24,2.63,4.23,5.39,8.43,7.56,12.9,7.92,16.28-.07,34.08-16.86,37.73-9.66,2.1-18.1-.41-24.84-7.69-7.15-7.72-8.32-16.83-5.04-26.5,1.3-3.85,3.38-7.49,5.5-10.99,5.86-9.71,11.93-19.29,18.4-29.68ZM296.81,45.65s-.02,0-.04,0c0-1.74.4-3.62-.11-5.19-.52-1.6-1.93-2.91-2.95-4.35-1.2,1.14-3.21,2.13-3.45,3.44-.73,3.99-1.1,8.12-.91,12.17.06,1.28,2.27,3.33,3.61,3.42,1.2.08,3.2-1.81,3.69-3.23.64-1.88.16-4.15.16-6.26Z"/>
  <path class="cls-1" d="M366.3,48.49c2.45,3.79,4.34,6.68,6.19,9.59,5.09,8.01,10.34,15.91,15.19,24.06,5.82,9.79,7.25,19.99.76,30.06-6.94,10.76-20.34,14.37-32.42,9.12-10.83-4.7-16.98-17.58-14.11-29.71.43-1.81.83-3.74,1.76-5.31,7.34-12.42,14.8-24.77,22.63-37.82ZM356.75,94.2s-.07,0-.1,0c0-1.98.36-4.06-.12-5.92-.35-1.35-1.62-2.95-2.87-3.4-.75-.27-3.07,1.3-3.22,2.28-.71,4.45-1.17,9-1.07,13.49.02,1.01,2.61,2.68,4.03,2.71,1.1.02,2.79-1.9,3.21-3.27.56-1.81.14-3.92.14-5.9Z"/>
</svg>