<?xml version="1.0" encoding="UTF-8"?>
<svg id="Layer_1" data-name="Layer 1" xmlns="http://www.w3.org/2000/svg" viewBox="0 0 713.98 663.82">
  <defs>
    <style>
      .cls-1 {
        fill: #000;
        stroke-width: 0px;
      }
    </style>
  </defs>
  <path class="cls-1" d="M39.69,662.89c2.38-2.9,4.32-5.73,6.71-8.13,20.35-20.41,40.84-40.68,61.16-61.12,24.2-24.33,48.27-48.8,72.41-73.19,30.37-30.67,60.8-61.26,91.12-91.97,38.4-38.89,76.58-77.99,115.15-116.71,11.85-11.89,24.67-22.81,37.05-34.17.12-.11.27-.21.37-.33,2.49-2.87,7.02-4.95,4.56-9.9-1.59-3.19-9.05-4.41-13.31-2.36-1.93.93-3.74,2.18-5.46,3.47-23.52,17.66-44.12,38.41-64.12,59.87-13.51,14.5-27.74,28.33-41.65,42.46-37.5,38.12-75.03,76.22-112.49,114.39-29.76,30.32-59.46,60.69-89.14,91.08-26.19,26.81-52.33,53.67-78.48,80.53-.81.83-1.45,1.83-1.97,2.51-12.16-3.74-20.65-16.91-20.68-31.61-.06-27.17.04-54.33-.06-81.5-.02-5.98-.65-11.96-.86-17.94-.06-1.61-.09-3.54.69-4.8,8.86-14.2,18.77-27.44,36.46-31.1,7.29-1.51,14.84-2,22.3-2.49,11.87-.78,21.44-5.47,28.39-15.26,4.53-6.38,8.98-12.83,13.72-19.05,16.19-21.26,38.51-29.03,64.34-29.12,7.63-.03,15.37.32,22.86-.82,12.52-1.91,20.45-9.54,25.23-21.47,4.11-10.27,8.71-20.68,15.04-29.66,16.47-23.36,38.53-38.79,67.55-42.78.33-.05.66-.09.99-.15,20.28-3.96,19.61-4.32,29.35-22.26,11.39-20.97,28.03-35.8,53.02-38.65,1.48-.17,3.13-.24,4.36-.95,3.02-1.73,5.85-3.81,8.76-5.74-1.76-2.38-3.39-4.88-5.34-7.11-1.74-2-3.96-3.57-5.75-5.53-5.99-6.57-7.59-13.68-3.05-21.89,3.22-5.82,5.63-12.07,8.84-17.9,1.38-2.51,3.47-5.63,5.89-6.37,7.56-2.34,15.38-3.94,23.2-5.24,2.38-.39,5.5.51,7.56,1.9,8.69,5.84,17.41,11.7,25.53,18.29,6.29,5.11,16.68,4.51,21.19-2.41,1.62-2.48,2.75-5.3,3.97-8.03,7.49-16.72,21.84-25.6,37.71-32.41,11.59-4.97,23.51-9.21,35.39-13.49,4.39-1.58,7.26-4.19,9.38-8.29,2.75-5.3,5.57-10.67,9.13-15.43,8.72-11.7,20.54-18.75,34.93-21.26,8.52-1.49,17.21-2.2,25.6-4.18,6.23-1.47,12.35-3.93,18.09-6.79,17.73-8.84,36.15-14.38,56.18-12.95,3.72.27,7.39,1.14,11.09,1.74.21.52.42,1.05.63,1.57-1.62,1.63-2.96,3.76-4.89,4.8-10.73,5.76-19.41,13.84-27.77,22.56-24.69,25.72-49.54,51.3-74.61,76.66-30.1,30.46-60.48,60.63-90.73,90.94-40.73,40.8-81.51,81.56-122.18,122.43-51.72,51.97-103.45,103.92-154.95,156.1-25.39,25.73-50.28,51.96-75.4,77.96-4.04,4.19-8.06,8.41-12.2,12.49-.84.83-2.21,1.59-3.34,1.6-12.63.11-25.26.07-39.38.07,1.92-2.69,3.09-4.9,4.76-6.61,20.18-20.59,40.44-41.1,60.67-61.64,24.66-25.04,49.24-50.17,74-75.11,33.56-33.81,67.18-67.56,100.92-101.2,55.68-55.51,111.51-110.87,167.2-166.37,32.2-32.09,64.37-64.23,96.31-96.59,7.59-7.68,14.39-16.17,21.16-24.6,2.39-2.97,3.59-6.89,5.79-11.28-8.19-.83-14.71-.66-20.14,4.6-7.17,6.94-14.48,13.75-21.55,20.79-58.93,58.66-117.84,117.33-176.72,176.04-44.83,44.71-89.75,89.33-134.37,134.25-45.21,45.52-90.18,91.27-135.09,137.08-18.43,18.8-36.45,37.99-54.68,57-3.92,4.08-7.85,8.15-11.88,12.13-.74.73-1.94,1.42-2.93,1.43-13.16.08-26.33.03-39.49-.01-.43,0-.86-.32-2.1-.81Z"/>
  <path class="cls-1" d="M300.25,663.76c5.59-39.02,33.51-86.72,108.4-87.32.64-5.36,1.4-10.75,1.9-16.17,1.25-13.5,6.76-25.23,14.42-36.2,20.32-29.09,48.68-42.28,83.61-42.55,8.81-.07,9.56.14,10.6-8.49,3.93-32.38,44.63-63.56,78.22-62.27,12.15.47,10.69,1.44,10.35-10.16-.87-29.84,11.43-53.48,33.36-72.71,10.08-8.84,22.18-13.34,35.34-14.89,3.85-.45,5.01-2.22,5.45-5.66,2.35-18.44,11.42-33.11,25.63-44.77,1.71-1.4,3.83-2.3,6.45-3.83-.38,6.92-.99,12.82-.98,18.71.09,91.97.25,183.93.41,275.9.04,24.16.04,48.31.23,72.47.12,15.3-6.74,26.63-19.75,33.96-4.28,2.41-9.69,3.93-14.59,3.94-118.46.17-236.91.08-355.37.04-7.79,0-15.59,0-23.68,0Z"/>
  <path class="cls-1" d="M712.74,190.29c.27,4.65.63,7.75.61,10.84-.05,10.66-.35,21.33-.29,31.99.02,2.97-1.11,4.41-3.62,5.72-20.49,10.66-33.73,27.25-39.61,49.54-1.42,5.37-3.91,8.19-9.61,9.67-27.88,7.28-48.11,24.3-60.7,50.14-6.17,12.66-9.6,26.22-10.7,40.28-.24,3.13-1.37,4.09-4.46,4.5-20.27,2.71-38.57,10.16-54.08,23.71-12.96,11.33-22.25,25.08-26.44,41.96-.85,3.44-2.29,5.17-6.3,5.37-19.57.98-38.37,5.32-54.9,16.23-26.73,17.64-44.6,41.58-50.13,73.77-.3,1.78-.68,3.54-1.05,5.43-5.78.6-11.45.76-16.95,1.82-36.21,6.97-63.32,26.14-78.86,60.13-6.21,13.57-11.59,27.53-17.55,41.8h-103.56c2.51-3.22,3.91-5.43,5.7-7.25,24.24-24.77,48.46-49.55,72.82-74.19,39.24-39.69,78.57-79.29,117.88-118.91,29.1-29.33,58.22-58.65,87.36-87.95,40.07-40.28,80.18-80.52,120.26-120.78,32.2-32.34,64.45-64.64,96.57-97.07,10.3-10.4,20.25-21.16,30.42-31.69,2.25-2.33,4.77-4.4,7.34-6.74,0,12.7-.75,24.64.23,36.45.84,10.23-1.97,16.25-10.74,22.8-12.84,9.59-25.83,18.44-39.99,25.93-24.45,12.91-39.21,33.46-44.92,60.45-.69,3.29-2.23,4.77-5.39,5.45-40.86,8.86-66.09,34.88-80.21,73.13-3.11,8.42-6.33,16.81-9.84,25.06-5.15,12.1-15.01,19.04-27.21,22.38-33.3,9.12-60.69,26.56-80.92,54.97-7.52,10.56-16.65,19.98-24.06,30.61-4.19,6.01-6.5,13.36-9.32,20.24-.56,1.37.37,3.36.61,5.06,1.54-.69,3.4-1.05,4.55-2.15,2.64-2.52,4.98-5.36,7.37-8.14,13.66-15.92,27.01-32.11,41.02-47.71,15.25-16.97,35.13-26.54,56.52-33.36,14.11-4.5,27.26-10.62,37.38-22,8.4-9.44,13-20.75,16.9-32.52,2.19-6.62,4.39-13.31,7.43-19.55,11.93-24.55,31.61-40.28,57.23-48.87,5.66-1.9,11.43-3.55,17.23-4.98,4.27-1.05,4.23-4.47,5.13-7.64,2.41-8.44,4.02-17.31,7.79-25.12,8.43-17.48,23.05-28.62,40.98-35.3,7.79-2.9,14.8-6.12,19.86-13.31,2.65-3.77,7.23-6.17,12.19-10.2ZM568.09,368.76c4.27-1.48,8.28-1.01,8.85-5.83.38-3.28-2.79-6.25-6.26-6.19-3.71.07-8.23,3.73-7.53,7.01.41,1.93,3.21,3.35,4.94,5.01Z"/>
  <path class="cls-1" d="M496.61,157.04c-2.6-5.46-5.29-10.75-7.65-16.18-3.36-7.74-8.54-13.77-15.72-18.19-4.52-2.78-4.93-5.68-1.25-9.76,6.87-7.61,13.02-15.63,15.03-25.97.62-3.21.39-6.58.55-9.87-.52-.14-1.03-.29-1.55-.43-1.19,1.06-2.59,1.97-3.55,3.21-7.83,10.15-15.77,20.23-23.29,30.6-5.03,6.93-4.56,9.76,1.43,16.17,3.98,4.25,8.24,8.25,12.16,12.56,3.37,3.71,5.73,7.93,4.49,15.21-11.45-7.98-21.89-15.19-32.22-22.56-.84-.6-1.12-2.25-1.28-3.46-.57-4.29-1.23-8.59-1.33-12.9-.05-2.28.35-5.12,1.69-6.79,9.04-11.31,18.4-22.36,27.61-33.54,3.95-4.79,8.71-6.3,15.08-6.88,15.74-1.42,28.93,2.04,39.67,14.18,2.75,3.11,7.06,4.92,10.82,7.03,2.62,1.47,3.78,3.14,3.57,6.33-.81,12.12-1.3,24.26-1.98,36.38-.06,1.09-.28,2.59-1.01,3.16-5.21,4.04-10.17,8.67-15.98,11.6-7.95,4.01-16.58,6.69-25.3,10.09Z"/>
  <path class="cls-1" d="M282.04,152.07c-2.6,1.24-4.71,1.61-5.8,2.87-6.44,7.38-12.66,14.97-18.93,22.49-3.08,3.69-2.71,7.18-.39,11.38,4.08,7.39,7.51,15.14,11.05,22.82.71,1.55.67,3.45,1.1,5.92-7.21-2.12-13.91-3.38-17.29-10.36-3.82-7.89-7.94-15.65-11.26-23.73-.82-1.99.28-5.48,1.65-7.51,4.37-6.47,8.71-13.14,14.15-18.67,5.75-5.85,12.21-11.52,19.4-15.25,4.11-2.13,10.37-.66,15.56-.05,7.59.89,15.08,2.55,22.64,3.73,3.98.62,5.43,2.86,5.88,6.74.67,5.75,2.09,11.4,2.96,17.13,1.42,9.33,2.78,18.67,3.83,28.04.15,1.36-1.2,3.45-2.47,4.3-8.43,5.65-16.95,11.18-25.62,16.46-2.18,1.33-4.97,1.99-7.54,2.21-1.39.12-3.6-.95-4.28-2.15-5.78-10.1-11.28-20.36-16.9-30.55-2.12-3.84-.07-6.72,2.13-9.51,4.33-5.48,9.05-10.73,9.56-18.2.16-2.28.32-4.56.58-8.12Z"/>
  <path class="cls-1" d="M193.15,368.73c-1,6.45-1.7,11.89-2.78,17.26-.29,1.44-1.49,2.98-2.71,3.9-3.31,2.49-7.08,4.41-10.25,7.05-4.6,3.83-9.27,3.53-13.79.62-7.07-4.55-14.09-9.24-20.71-14.41-4.11-3.21-5.36-7.98-3.15-13.04,2.05-4.69,3.81-9.64,6.67-13.81,6.67-9.7,19.35-11.83,28.99-4.96,5.52,3.94,10.58,8.57,15.61,13.15,1.27,1.16,1.67,3.28,2.13,4.23ZM155.79,361.92c4.71,2.9,8.2,5.06,12.75,7.87-1.34-3.32-1.98-5.52-3.08-7.46-.93-1.64-2.49-4.29-3.56-4.19-1.88.17-3.6,2.11-6.11,3.78Z"/>
  <path class="cls-1" d="M371.81,47.87c1.27,4.52-2.21,11.06-7.74,14.03-4.53,2.43-9.13,4.78-13.88,6.75-1.36.57-3.59.14-4.97-.63-5.36-3.01-10.76-6.05-15.67-9.71-2.08-1.55-3.51-4.51-4.32-7.12-1.46-4.74-1.97-9.76-3.4-14.51-.79-2.62-.25-3.89,1.95-5.23,6.09-3.72,12.14-7.53,18.06-11.53,3.05-2.06,5.83-2.61,9.21-.76,4.96,2.71,10.06,5.17,15.17,7.6,4.03,1.92,6.21,4.77,5.87,9.42-.28,3.94-.29,7.91-.42,11.85-2.06-1.77-4.09-3.56-6.19-5.28-4.99-4.09-10.11-8.02-14.95-12.27-2.04-1.79-3.78-4.57-6.49-1.82-2.36,2.39-1.7,5.64.91,7.42,8.2,5.56,16.15,11.87,26.86,11.79Z"/>
  <path class="cls-1" d="M290.78,278.99c-2.06-8.01-7.83-8.89-15.25-2.96-1.38-8.13,5.12-18.66,13.24-20.84,8.32-2.23,16.17-1.01,23.08,4.47,5.37,4.25,7.93,9.51,6.72,16.59-1.25,7.28-2.27,14.49-8.46,19.63-3.87,3.21-8.04,4.92-12.86,2.75-5.68-2.56-11.36-5.2-16.71-8.37-1.94-1.15-3.2-3.79-4.25-6-1.59-3.34-.66-5.43,3.51-5.3,3.61.12,7.22.02,10.97.02Z"/>
  <path class="cls-1" d="M214.59,135.15c.18,12.08-8.22,21.71-20.33,23.32-.32.04-.73.15-.97.02-7.87-4.45-15.91-8.64-23.42-13.63-1.55-1.03-2.11-5.36-1.41-7.64,3.34-10.82,9.56-19.69,19.89-24.99,1.51-.77,4.07-.8,5.57-.04,5.6,2.85,11.7,5.39,16.16,9.59,3.16,2.98,3.99,8.44,5.86,12.8-.45.19-.91.39-1.36.58ZM186.4,120.19c-.6-.28-1.2-.56-1.8-.84-3.38,6.95-6.75,13.89-10.25,21.08,8.48.81,14.45-9.96,12.04-20.25Z"/>
  <path class="cls-1" d="M175.68,293.88c.08-1.61,0-2.47.18-3.27.93-4.08.72-9.21,3.16-11.99,4.52-5.14,11.05-7.96,18.25-7.83,9.47.18,20.6,8.36,19.6,21.35-.5,6.45-1.32,12.66-6.67,17.11-4.09,3.41-8.86,4.61-14.03,3.3-4.98-1.27-9.86-2.89-14.79-4.33-3.83-1.13-5.89-3.51-5.73-7.66.1-2.48.02-4.97.02-6.68Z"/>
  <path class="cls-1" d="M72.13,434.32c.33,7.7-3.6,14.97-12.8,18.92-1.6.69-3.72,1.41-5.19.91-6.89-2.34-13.73-4.72-17.82-11.68-5.44-9.23-4.83-16.82,2.55-23.74,6.82-6.4,17.51-6.94,25.06-.95,4.6,3.65,8.79,7.76,8.21,16.54Z"/>
  <path class="cls-1" d="M609.9,62.85c-.36,4.95-.45,8.45-.93,11.89-.22,1.53-.85,3.43-1.97,4.32-3.61,2.88-7.3,5.83-11.38,7.9-5.24,2.66-11.12-.16-12.64-5.79-1.86-6.9-3.2-13.9-9.16-18.88-.68-.57-.26-3.47.57-4.66,6-8.58,20.79-10.98,29.64-5.04,4.19,2.81,6.83,6.35,5.88,10.26Z"/>
  <path class="cls-1" d="M393.3,157.92c-3.54.11-7.1-.99-9.15-5.97-1.34-3.25-4.26-5.86-6.47-8.75-3.62-4.73-3.58-8.86.11-14.04,3.79-5.31,8.43-7.07,13.74-5.23,9.32,3.24,15.75,13.12,14.92,22.95-.61,7.21-4.87,11.11-13.15,11.04Z"/>
  <path class="cls-1" d="M136.52,238.85c-.2,1.14-.27,3.19-.92,5.04-1.76,5.03-5.17,8.9-10.52,9.53-5.4.64-9.97-2.02-13.31-6.37-.9-1.17-1.45-2.6-2.14-3.93-2.76-5.32-5.13-10.58-.1-16.02,4.77-5.16,10.07-6.64,16.12-4.22,7.09,2.83,10.89,8.12,10.86,15.96Z"/>
  <path class="cls-1" d="M271,104.99c-6.78.1-11.86-5.22-12.01-12.58-.15-7.26,4.93-13.38,11.2-13.5,6.83-.13,12.44,5.66,12.48,12.87.03,6.84-5.52,13.13-11.67,13.22Z"/>
  <path class="cls-1" d="M235.82,322.56c0-6.6,5.17-12.29,11.24-12.36,6.53-.08,11.93,4.66,11.82,10.37-.13,6.74-6.03,13.25-11.95,13.18-6.09-.07-11.11-5.13-11.1-11.19Z"/>
  <path class="cls-1" d="M628.26,11.4c.05,6.54-4.84,11.8-10.98,11.81-5.75,0-10.27-4.6-10.37-10.58-.12-6.73,4.56-12.5,10.24-12.64,5.5-.13,11.07,5.58,11.11,11.4Z"/>
  <path class="cls-1" d="M658.9,45.75c-.11,5.91-4.64,10.42-10.42,10.38-6.08-.04-10.78-4.73-10.71-10.69.07-6.41,5.03-11.81,10.58-11.53,5.51.28,10.67,6.06,10.56,11.84Z"/>
  <path class="cls-1" d="M516.03,25.23c-.04,6.5-4.65,11.65-10.43,11.66-5.63,0-10.66-4.87-10.66-10.33,0-5.98,5.55-11.29,11.7-11.19,5.94.09,9.42,3.75,9.38,9.87Z"/>
  <path class="cls-1" d="M354.89,234.61c.05,6.02-4.73,11.14-10.37,11.08-5.67-.06-10.28-4.49-10.33-9.95-.06-6.05,4.96-11.34,10.82-11.39,5.49-.05,9.83,4.45,9.88,10.27Z"/>
  <path class="cls-1" d="M439.14,158.03c5.17-.07,10.28,4.9,10.44,10.16.18,5.92-4.27,11.07-9.74,11.26-5.61.19-10.75-5.05-10.72-10.93.03-5.4,4.82-10.42,10.02-10.49Z"/>
  <path class="cls-1" d="M249.04,243.83c.01,5.53-4.3,10.03-9.52,9.92-5.06-.11-8.7-3.75-8.79-8.8-.11-6.24,3.74-10.79,9.17-10.83,5.09-.04,9.11,4.24,9.13,9.71Z"/>
  <path class="cls-1" d="M141.73,276.3c1.5,1.09,4.39,2.18,5.37,4.2.8,1.66.04,5.04-1.29,6.56-2.45,2.8-5.74,4.9-8.83,7.09-2.64,1.88-4.93,1.61-7.4-.96-2.67-2.78-1.69-4.84.04-7.39,2.82-4.16,5.56-8.33,12.11-9.52Z"/>
  <path class="cls-1" d="M103.58,363.14c4.53-.13,9.15,4.6,9.24,9.45.07,4.12-3.79,8.24-7.78,8.28-4.5.05-9.13-4.41-9.18-8.85-.05-4.68,3.49-8.76,7.72-8.88Z"/>
  <path class="cls-1" d="M543.97,52.15c-.02,4.6-3.38,8.51-7.31,8.5-4.27,0-8.87-4.76-8.88-9.18-.01-4.93,3.67-8.91,8.18-8.85,4.71.05,8.04,4.01,8.01,9.53Z"/>
  <path class="cls-1" d="M577.94,27.91c.04,4.78-3.35,8.61-7.72,8.72-3.98.11-7.8-3.82-7.8-8.04,0-4.86,3.74-9,8.09-8.95,4.26.06,7.4,3.54,7.43,8.26Z"/>
  <path class="cls-1" d="M182.86,243.62c-.99-.65-3.4-1.51-4.5-3.22-.7-1.1.12-3.69,1-5.19,4.28-7.31,8.65-9.17,13.32-5.68,1.22.91,2.33,2.94,2.27,4.4-.16,3.95-6.83,9.59-12.08,9.69Z"/>
  <path class="cls-1" d="M150.96,326.68c-.07,3.63-4.29,7.5-8.04,7.39-4.22-.13-8.01-4.05-7.85-8.11.17-4.15,3.8-7.57,7.83-7.37,3.97.2,8.13,4.38,8.05,8.09Z"/>
  <path class="cls-1" d="M109.87,413.47c-.08,3.86-4.03,7.46-7.94,7.24-4.51-.26-7.44-3.62-7.25-8.32.17-4.14,3.33-7.41,7.15-7.39,4.26.02,8.12,4.09,8.03,8.47Z"/>
  <path class="cls-1" d="M153.3,201.52c3.71.15,6.78,3.48,6.54,7.3-.24,3.79-2.13,6.27-6.14,6.39-3.87.11-7.77-3.57-7.69-6.97.08-3.51,3.72-6.87,7.28-6.72Z"/>
  <path class="cls-1" d="M362.4,197.64c-3.99-.07-7.44-3.56-7.49-7.11-.05-3.44,3.31-6.62,6.81-6.43,3.44.18,7.12,3.98,6.75,7.35-.41,3.76-2.77,5.81-6.07,6.19Z"/>
  <path class="cls-1" d="M630.66,95.72c-2.88-.49-5.62-1.83-5.88-5.68-.25-3.57,3.85-7.2,8.08-7.22,3.16-.01,5.58,1.22,5.71,4.8.13,3.71-3.94,8.04-7.9,8.09Z"/>
  <path class="cls-1" d="M214.01,352.36c-3.48.1-6.96-2.99-7.12-6.32-.17-3.48,2.8-6.29,6.73-6.43,4-.15,6.33,1.64,6.55,5.71.2,3.86-2.56,6.93-6.15,7.04Z"/>
  <path class="cls-1" d="M677.63,70.7c-.01-3.88,1.73-6.69,5.72-6.75,3.58-.06,5.82,2.36,6.08,6.01.26,3.58-2.95,6.88-6.42,6.91-3.6.03-5.45-2.08-5.38-6.17Z"/>
  <path class="cls-1" d="M253.78,280.69c-2.06,1.65-3.9,4.09-6.24,4.76-2.92.84-6.74-3.17-6.4-6.19.39-3.51,2.54-5.82,6.13-6.16,2.84-.27,5.58,3.11,6.52,7.59Z"/>
  <path class="cls-1" d="M247.9,121.76c-.5,3.89-2.7,6.74-6.08,5.87-2.33-.6-5.22-3.75-5.58-6.1-.47-3.13,2.21-5.91,5.93-5.74,3.64.17,5.38,2.7,5.73,5.96Z"/>
  <path class="cls-1" d="M572.9,106.3c-.96,4.75-3.3,6.35-6.38,6.25-3.41-.11-6.07-1.96-6.35-5.75-.21-2.83,3.71-6.81,6.17-5.82,2.49,1.01,4.4,3.48,6.56,5.32Z"/>
  <path class="cls-1" d="M347.91,166.66c2.13-1.56,4.14-4.18,6.42-4.44,3.15-.36,5.65,2.06,5.33,5.7-.29,3.33-2.33,6-5.79,5.34-2.19-.41-4.01-2.78-5.99-4.27,0-.78.02-1.56.03-2.33Z"/>
  <path class="cls-1" d="M77.44,401.78c-2.78-3.02-5.45-4.63-5.86-6.68-.64-3.24,1.69-5.53,5.2-5.82,3.21-.27,6.53,2.73,5.77,5.82-.5,2.02-2.68,3.62-5.12,6.68Z"/>
  <path class="cls-1" d="M658.07,75.05c-3.08,2.58-4.77,5.06-6.91,5.53-3.18.7-5.36-1.59-5.34-4.99.02-3.48,1.68-6.74,5.33-6.47,2.01.15,3.8,3.13,6.92,5.93Z"/>
  <path class="cls-1" d="M404.87,14.04c-3.42,2.55-5.62,5.41-7.38,5.16-1.97-.27-4.91-3.35-4.92-5.22,0-1.81,3.02-4.84,5-5.09,1.77-.22,3.92,2.62,7.3,5.15Z"/>
  <path class="cls-1" d="M419.02,77.85c5.76,5.93,11.21,3.84,14.7-5,5.23,6.37,4.82,18.74-1.15,24.66-6.12,6.06-13.53,8.9-22.26,7.58-6.77-1.03-11.6-4.32-14.06-11.07-2.53-6.94-5.22-13.7-2.4-21.24,1.76-4.71,4.54-8.27,9.8-8.77,6.2-.6,12.44-1.12,18.66-1.02,2.25.04,4.66,1.7,6.67,3.1,3.04,2.11,3.27,4.39-.42,6.34-3.19,1.69-6.28,3.56-9.53,5.42Z"/>
  <path class="cls-1" d="M306.89,118.24c2.13-1.56,4.14-4.18,6.42-4.44,3.15-.36,5.65,2.06,5.33,5.7-.29,3.33-2.33,6-5.79,5.34-2.19-.41-4.01-2.78-5.99-4.27,0-.78.02-1.56.03-2.33Z"/>
  <path class="cls-1" d="M352.3,88.87c-.36,4.95-.45,8.45-.93,11.89-.22,1.53-.85,3.43-1.97,4.32-3.61,2.88-7.3,5.83-11.38,7.9-5.24,2.66-11.12-.16-12.64-5.79-1.86-6.9-3.2-13.9-9.16-18.88-.68-.57-.26-3.47.57-4.66,6-8.58,20.79-10.98,29.64-5.04,4.19,2.81,6.83,6.35,5.88,10.26Z"/>
</svg>