<?xml version="1.0" encoding="UTF-8"?>
<svg id="Layer_1" data-name="Layer 1" xmlns="http://www.w3.org/2000/svg" viewBox="0 0 425.76 552.2">
  <defs>
    <style>
      .cls-1 {
        fill: #000;
      }

      .cls-1, .cls-2 {
        stroke-width: 0px;
      }

      .cls-2 {
        fill: #fff;
      }
    </style>
  </defs>
  <path class="cls-1" d="M93.69,124.61c18.93-15.93,40.39-21.1,64.01-15.14,23.81,6.01,40.62,20.74,50.05,43.14-7.35,0-14.3-.52-21.13.14-7.74.75-14.76,3.96-20.1,9.81-1.27,1.39-1.95,4.03-1.68,5.92.37,2.58,2.58,3.65,5.14,2.25,21.44-11.74,43.77-4.5,56.98,11.38.15.18.4.28.76.51,22.66-13.39,45.44-15.73,67.03,1.84,16.8,13.67,21.78,32.19,18.67,53.42-.84.1-1.66.29-2.49.29-87.23,0-174.46.02-261.7-.03-14.89,0-27.14-6.03-36.78-17.23-16.36-19.01-16.61-47.48-.77-67.06,25.49-31.51,76.58-28.74,98.47,5.38,1.47,2.3,2.49,4.88,3.74,7.32,1.24,2.4,2.63,4.97,5.89,3.87,2.95-.99,2.99-3.85,2.64-6.34-1.59-11.5-7.29-20.92-15.51-28.8-3.92-3.76-8.45-6.87-13.24-10.7ZM71.31,158.54c-4.41.02-8.14,3.75-8.1,8.12.04,4.49,4.13,8.43,8.78,8.46,4.41.02,7.9-3.7,7.78-8.31-.12-4.57-3.93-8.29-8.47-8.27ZM61.08,193.35c-.08-4.27-3.99-8.3-8.06-8.29-4.62,0-8.42,3.69-8.42,8.17,0,4.36,4.31,8.62,8.68,8.57,4.17-.05,7.88-4.07,7.8-8.45ZM265.8,190.87s0,.06,0,.09c1.62,0,3.24-.07,4.85.01,2.58.13,4.51-1.31,4.25-3.55-.2-1.68-2.07-4.27-3.51-4.5-3.74-.6-7.72-.49-11.47.12-1.33.22-3.24,2.78-3.14,4.14.09,1.31,2.26,2.91,3.85,3.56,1.5.61,3.43.13,5.17.13ZM44.92,172.26c.02-3.76-2.82-6.82-6.35-6.85-3.54-.03-6.55,3.02-6.6,6.69-.05,3.78,2.73,6.71,6.41,6.75,3.74.04,6.52-2.76,6.54-6.59ZM275.12,214.47c-1.62,2.08-3.32,4.05-4.73,6.21-.36.56-.09,2.24.38,2.48.78.41,2.27.47,2.88-.03,1.22-1,2-2.53,3.07-3.74,1.77-2.01,1.53-3.51-1.59-4.92ZM150.3,140.22c-1.34-.86-2.86-2-2.96-1.88-1.49,1.71-2.86,3.54-4.03,5.48-.1.17,1.39,1.29,2.14,1.98,1.51-1.73,3.02-3.47,4.85-5.57ZM133.73,140.52c-1.32-1.09-2.67-2.32-2.74-2.25-1.42,1.41-2.78,2.9-3.89,4.56-.13.19,1.25,1.4,1.93,2.14,1.43-1.35,2.85-2.7,4.7-4.44Z"/>
  <path class="cls-1" d="M332.81,238.04c9.2-55.64-45.36-102.7-102.04-78.43-3.58-8.42-6.79-17.02-10.85-25.19-4.27-8.59-10.75-15.65-18.03-21.84-2.63-2.23-2.68-4.02-1.08-6.89,13.18-23.64,33.29-37.56,59.54-43.2,47.82-10.28,92.56,19.65,106.54,62.32,1.25,3.83,1.93,7.84,2.93,12.01-5.09-.96-9.44-2.11-13.85-2.56-12.68-1.28-24.03,1.95-33.45,10.83-1.53,1.44-2.88,3.13-4.06,4.87-1.4,2.08-1.4,4.25.57,6.09,1.93,1.8,3.78,1.25,5.71-.15,13.07-9.48,27.28-10.52,41.85-4.59,5.18,2.11,9.7,5.97,14.25,9.4,1.84,1.39,3.31,2.48,5.81,2.54,17.96.46,32.5,11.19,37.57,27.47,6.31,20.25-7.71,42.84-28.99,46.65-2.21.4-4.46.75-6.69.76-17.87.08-35.74.07-53.61.07-.6,0-1.21-.09-2.14-.16ZM363.22,195.51c5.25.12,8.86-3.21,9.02-8.33.15-4.64-3.93-8.83-8.7-8.95-4.6-.12-8.67,3.73-8.83,8.35-.17,4.91,3.56,8.82,8.51,8.93ZM285.36,83.22s0-.1,0-.14c2,0,4-.1,5.99.02,2.87.17,5.23-.71,5.43-3.77.2-2.98-1.78-5.13-4.72-5.31-4.85-.3-9.75-.24-14.61-.02-2.83.13-4.71,2.02-4.69,4.88.01,3.11,2.38,4.18,5.11,4.32,2.49.12,4.99.03,7.49.03ZM247.59,94.03c3.58-1.96,6.77-3.57,9.83-5.41,2.53-1.52,3.77-3.8,2.11-6.61-1.68-2.83-4.35-3.91-7.33-2.25-2.8,1.56-5.57,3.37-7.83,5.6-1,.99-1.33,3.52-.81,4.93.53,1.44,2.46,2.37,4.03,3.74ZM388.96,211.2c3.79.02,6.57-2.79,6.54-6.61-.03-3.44-3.04-6.71-6.22-6.75-3.77-.06-6.94,3.03-6.95,6.79-.02,3.63,2.93,6.55,6.63,6.57ZM221.63,109.04c3.14.12,9.58-7.61,8.9-10.67-.51-2.31-3.83-3.94-5.6-2.34-2.54,2.29-4.94,4.93-6.69,7.85-1.46,2.42.58,5.06,3.39,5.16ZM269.97,114.18c-.57-.09-1.14-.18-1.71-.27-1.59,2.72-3.57,5.31-4.56,8.23-.33.97,2.07,2.51,3.67.75,1.33-1.47,2.73-3.04,3.44-4.83.4-1.02-.52-2.57-.84-3.88ZM292.06,104.73c-.48,0-.95-.02-1.43-.03-1.44,1.8-2.99,3.53-4.25,5.45-.4.62-.29,1.9.1,2.59.33.59,1.85,1.27,2.05,1.07,1.64-1.57,3.41-3.17,4.46-5.12.48-.9-.57-2.62-.92-3.97ZM232.55,118.6c1.79-2.76,3.16-4.67,4.23-6.73.15-.3-1.12-1.33-1.73-2.02-1.61,1.77-3.3,3.47-4.71,5.38-.2.27.99,1.56,2.21,3.38Z"/>
  <path class="cls-1" d="M152.72,551.24c16.39-41.68,32.79-83.37,49.38-125.57h-62.75c3.98-8.8,7.72-16.95,11.37-25.14,21.03-47.16,42.05-94.34,63.06-141.51,3.59-8.07,3.55-8.11,12.47-8.12,12.6-.01,25.2.02,37.81.05,1.34,0,2.68.11,4.79.2-22.78,44.03-45.31,87.57-68.14,131.7h74.19c-40.5,56.94-80.48,113.14-120.46,169.35-.58-.32-1.15-.64-1.73-.96ZM209.46,300.1c-.47.06-.94.12-1.41.18-1.2,1.71-2.48,3.37-3.57,5.15-1.02,1.66-.12,3.61,1.42,3.02,1.91-.73,3.52-2.8,4.66-4.65.45-.73-.69-2.44-1.11-3.7ZM231.78,295.19c1.72-2.75,3.08-4.67,4.07-6.75.17-.35-1.24-1.43-1.91-2.17-1.54,1.85-3.17,3.64-4.51,5.63-.19.29,1.06,1.53,2.35,3.3Z"/>
  <path class="cls-1" d="M268.07,42.49c-18.87,1.19-35.69,6.95-50.9,17.17-15.14,10.16-26.34,23.93-35.37,39.77-14.5-8.32-29.93-11.46-46.29-10.76-22.22.96-41.23,9.26-56.96,24.91-2.46,2.44-4.52,3.69-8.11,2.48-2.89-.98-6.12-.95-9.59-1.42,3.06-6.45,7.02-12.09,12.58-16.06,5.74-4.1,12.06-7.42,18.34-10.69,2.02-1.05,3.05-1.93,3.29-4.25,2.69-26.07,14.17-47.54,34.88-63.52C151.07,3.81,175.22-2.64,201.79.97c26.61,3.62,47.77,16.61,63.94,37.92.73.97,1.33,2.03,2.34,3.6ZM192.33,13.54c-5.12.63-9.21,1.02-13.25,1.68-2.81.46-4.61,2.44-4.22,5.22.4,2.78,2.63,4.1,5.5,3.81,4.57-.46,9.16-.79,13.66-1.62,1.42-.26,3.19-1.71,3.67-3.03.41-1.12-.41-3.25-1.39-4.18-1.21-1.15-3.15-1.52-3.98-1.88ZM147.79,38.04c4.22-2.76,8.13-5.08,11.75-7.78,1.97-1.47,2.5-3.8.77-5.93-1.61-1.98-3.77-3.16-6.21-1.57-3.31,2.17-6.58,4.46-9.54,7.06-.91.8-1.4,3.08-.92,4.19.63,1.46,2.4,2.43,4.15,4.04ZM132.56,46.7c-.9-3.25-4.65-5.39-6.55-3.51-2.59,2.55-4.83,5.67-6.42,8.93-1.24,2.54,2.76,6.04,4.83,4.29,3.18-2.69,5.48-6.42,8.15-9.71Z"/>
  <path class="cls-1" d="M43.74,285.15c.81.87,1.52,1.41,1.93,2.12,6.11,10.45,12.66,20.67,18.13,31.45,7.33,14.42-2.48,30.66-18.66,31.84-16.32,1.2-28.09-14.85-21.63-30.17,2.99-7.08,7.41-13.56,11.27-20.26,2.86-4.95,5.87-9.82,8.96-14.98Z"/>
  <path class="cls-1" d="M133.86,268.39c4.1,6.8,8.27,13.56,12.28,20.41,2.45,4.19,4.93,8.4,6.93,12.81,4.27,9.45,1.58,20.13-6.3,26.27-7.94,6.19-19.73,6.44-27.53.57-8.23-6.19-11.62-17.04-6.76-26.4,6.01-11.57,13.22-22.52,19.91-33.74.49.03.98.05,1.47.08Z"/>
  <path class="cls-1" d="M79.65,425.29c1.27,1.53,2.19,2.36,2.77,3.37,5.02,8.9,10.12,17.76,14.9,26.79,3.88,7.33,4.27,14.79-.73,21.93-6.04,8.61-17.89,11.31-26.96,6.18-9.31-5.27-13.16-16.2-8.14-26.19,5.41-10.76,11.84-21.01,18.17-32.08Z"/>
  <path class="cls-1" d="M304.12,476.7c.69,1.15,1.03,1.67,1.33,2.22,5.54,10.03,11.38,19.91,16.51,30.15,3.83,7.64,2.51,15.16-3.37,21.45-5.56,5.94-12.59,8.15-20.42,5.87-8.12-2.37-13.24-8.07-14.18-16.55-.38-3.42.12-7.48,1.69-10.48,5.66-10.79,11.94-21.26,18.45-32.65Z"/>
  <path class="cls-1" d="M102.74,256.25c-6.91,9.87-13.22,19.24-19.92,28.33-3.3,4.48-8.86,5.32-12.62,2.65-4.01-2.85-4.95-7.72-1.89-12.67,3.47-5.62,7.32-11.01,11.11-16.42.58-.83,1.7-1.78,2.59-1.8,6.68-.15,13.37-.08,20.74-.08Z"/>
  <path class="cls-1" d="M367.75,355.12c3.46,6.84,7.2,13.55,10.27,20.56,2.12,4.83.08,10.11-4.14,13.26-4.06,3.03-9.52,3.17-13.62.35-4.2-2.89-6.47-8.27-4.39-13.16,3.05-7.17,6.91-13.99,10.42-20.96.49-.01.98-.03,1.46-.04Z"/>
  <path class="cls-1" d="M94.47,325.4c3.22,6.43,6.73,12.73,9.57,19.32,2.12,4.92.09,10.19-4.18,13.18-4.35,3.04-10.03,2.94-13.93-.26-3.96-3.25-5.36-8.46-2.88-13.56,3.09-6.36,6.74-12.46,10.14-18.67.42,0,.85-.01,1.27-.02Z"/>
  <path class="cls-1" d="M111.44,389.58c3.35,7.05,7.05,13.96,9.92,21.2,1.6,4.05-1.03,8.95-4.78,11.28-4.58,2.85-9.51,2.84-13.31-.05-3.76-2.85-5.66-7.86-3.67-12.39,2.99-6.8,6.69-13.29,10.09-19.91.58-.05,1.16-.09,1.74-.14Z"/>
  <path class="cls-1" d="M160.86,267.88c-6.14.06-10.82-4.63-10.86-10.87-.04-6.21,4.56-11.07,10.6-11.2,6.3-.14,11.59,4.86,11.76,11.1.16,5.67-5.34,10.91-11.5,10.97Z"/>
  <path class="cls-1" d="M130.19,465.93c.1-6.07,4.42-10.26,10.55-10.21,5.3.04,9.9,4.84,9.83,10.27-.06,5.25-5.2,10.1-10.63,10.03-5.76-.07-9.84-4.29-9.75-10.08Z"/>
  <path class="cls-1" d="M37.93,275.74c-5.03-.03-8.83-3.96-8.86-9.17-.03-5.52,3.91-9.62,9.28-9.65,5.17-.03,9.5,4.34,9.48,9.58-.01,4.96-4.63,9.27-9.9,9.24Z"/>
  <path class="cls-1" d="M140.37,354.69c4.51-.03,8.16,3.54,8.17,7.98,0,4.21-3.81,7.92-8.24,8.02-4.92.11-8.26-3.23-8.2-8.18.06-4.52,3.51-7.78,8.27-7.82Z"/>
  <path class="cls-1" d="M8.88,373.34c-.06-4.69,3.61-8.36,8.29-8.29,4.13.06,7.82,3.83,7.86,8.02.04,4.33-3.65,8.13-8.05,8.29-4.41.15-8.05-3.44-8.11-8.02Z"/>
  <path class="cls-1" d="M25.35,432.65c-3.97-.06-7.13-3.42-7.12-7.57.01-4.19,3.79-7.71,8.1-7.54,3.98.15,7.35,3.7,7.2,7.58-.16,4.2-3.85,7.6-8.18,7.53Z"/>
  <path class="cls-1" d="M323.51,281.82c.81.87,1.52,1.41,1.93,2.12,6.11,10.45,12.66,20.67,18.13,31.45,7.33,14.42-2.48,30.66-18.66,31.84-16.32,1.2-28.09-14.85-21.63-30.17,2.99-7.08,7.41-13.56,11.27-20.26,2.86-4.95,5.87-9.82,8.96-14.98Z"/>
  <path class="cls-1" d="M295.81,285.15c-5.03-.03-8.83-3.96-8.86-9.17-.03-5.52,3.91-9.62,9.28-9.65,5.17-.03,9.5,4.34,9.48,9.58-.01,4.96-4.63,9.27-9.9,9.24Z"/>
  <path class="cls-1" d="M288.65,370.01c-.06-4.69,3.61-8.36,8.29-8.29,4.13.06,7.82,3.83,7.86,8.02.04,4.33-3.65,8.13-8.05,8.29-4.41.15-8.05-3.44-8.11-8.02Z"/>
  <path class="cls-1" d="M305.12,429.32c-3.97-.06-7.13-3.42-7.12-7.57.01-4.19,3.79-7.71,8.1-7.54,3.98.15,7.35,3.7,7.2,7.58-.16,4.2-3.85,7.6-8.18,7.53Z"/>
  <path class="cls-1" d="M267.72,317.59c.03-4.1,2.63-6.66,6.81-6.7,3.97-.04,7.37,3.12,7.37,6.86,0,3.48-3.76,7.14-7.34,7.14-3.91,0-6.87-3.16-6.84-7.3Z"/>
  <path class="cls-1" d="M265.14,465.98c-.03-4.29,2.63-6.94,6.96-6.93,3.74.01,6.56,2.82,6.61,6.58.05,3.78-3.26,7.04-7.18,7.05-3.79.01-6.37-2.69-6.4-6.71Z"/>
  <path class="cls-1" d="M72.28,395.35c-.03,3.43-2.74,6.16-6.16,6.2-3.28.04-5.88-2.61-5.85-5.96.03-3.18,2.76-5.93,5.97-6,3.34-.07,6.07,2.53,6.05,5.77Z"/>
  <path class="cls-1" d="M328.66,385.71c.13-3.23,1.59-5.06,4.75-5.19,2.84-.11,5.1,2.04,5.08,4.72-.01,2.72-2.56,5.31-5.3,5.08-2.79-.24-4.53-1.76-4.54-4.61Z"/>
  <path class="cls-1" d="M366.97,300.56c-.23,2.94-1.87,4.47-4.58,4.49-2.86.02-4.41-1.9-4.32-4.56.09-2.6,1.64-4.58,4.48-4.48,2.75.09,4.13,1.95,4.42,4.55Z"/>
  <path class="cls-2" d="M71.31,158.54c4.54-.02,8.35,3.7,8.47,8.27.12,4.6-3.37,8.33-7.78,8.31-4.65-.03-8.75-3.97-8.78-8.46-.04-4.37,3.69-8.1,8.1-8.12Z"/>
  <path class="cls-2" d="M61.08,193.35c.08,4.38-3.63,8.4-7.8,8.45-4.37.05-8.68-4.21-8.68-8.57,0-4.48,3.8-8.16,8.42-8.17,4.07,0,7.98,4.02,8.06,8.29Z"/>
  <path class="cls-2" d="M265.8,190.87c-1.74,0-3.68.48-5.17-.13-1.59-.64-3.76-2.24-3.85-3.56-.1-1.36,1.81-3.92,3.14-4.14,3.75-.61,7.73-.72,11.47-.12,1.44.23,3.32,2.82,3.51,4.5.26,2.24-1.67,3.68-4.25,3.55-1.61-.08-3.23-.01-4.85-.01,0-.03,0-.06,0-.09Z"/>
  <path class="cls-2" d="M44.92,172.26c-.02,3.83-2.8,6.63-6.54,6.59-3.68-.04-6.46-2.97-6.41-6.75.05-3.67,3.05-6.72,6.6-6.69,3.53.03,6.37,3.09,6.35,6.85Z"/>
  <path class="cls-2" d="M275.12,214.47c3.12,1.41,3.36,2.92,1.59,4.92-1.07,1.21-1.84,2.74-3.07,3.74-.61.5-2.1.43-2.88.03-.46-.24-.74-1.92-.38-2.48,1.41-2.16,3.11-4.13,4.73-6.21Z"/>
  <path class="cls-2" d="M150.3,140.22c-1.83,2.1-3.34,3.84-4.85,5.57-.75-.68-2.24-1.81-2.14-1.98,1.17-1.94,2.54-3.77,4.03-5.48.1-.11,1.62,1.02,2.96,1.88Z"/>
  <path class="cls-2" d="M133.73,140.52c-1.84,1.74-3.27,3.09-4.7,4.44-.68-.74-2.06-1.95-1.93-2.14,1.11-1.65,2.47-3.15,3.89-4.56.07-.07,1.42,1.16,2.74,2.25Z"/>
  <path class="cls-2" d="M363.22,195.51c-4.95-.11-8.68-4.03-8.51-8.93.16-4.62,4.22-8.47,8.83-8.35,4.77.12,8.85,4.31,8.7,8.95-.16,5.12-3.77,8.45-9.02,8.33Z"/>
  <path class="cls-2" d="M285.36,83.22c-2.5,0-5,.1-7.49-.03-2.73-.14-5.1-1.21-5.11-4.32-.01-2.86,1.87-4.75,4.69-4.88,4.86-.22,9.75-.29,14.61.02,2.94.18,4.91,2.33,4.72,5.31-.2,3.06-2.56,3.94-5.43,3.77-1.99-.12-3.99-.02-5.99-.02,0,.05,0,.1,0,.14Z"/>
  <path class="cls-2" d="M247.59,94.03c-1.57-1.37-3.51-2.3-4.03-3.74-.52-1.41-.19-3.94.81-4.93,2.26-2.23,5.03-4.04,7.83-5.6,2.98-1.66,5.65-.58,7.33,2.25,1.67,2.81.42,5.09-2.11,6.61-3.06,1.84-6.25,3.45-9.83,5.41Z"/>
  <path class="cls-2" d="M388.96,211.2c-3.7-.02-6.64-2.94-6.63-6.57.02-3.76,3.18-6.85,6.95-6.79,3.18.05,6.19,3.32,6.22,6.75.03,3.82-2.75,6.63-6.54,6.61Z"/>
  <path class="cls-2" d="M221.63,109.04c-2.81-.1-4.85-2.75-3.39-5.16,1.76-2.91,4.15-5.55,6.69-7.85,1.77-1.6,5.1.03,5.6,2.34.68,3.07-5.77,10.79-8.9,10.67Z"/>
  <path class="cls-2" d="M269.97,114.18c.32,1.31,1.24,2.86.84,3.88-.71,1.79-2.11,3.37-3.44,4.83-1.6,1.76-4,.21-3.67-.75.99-2.92,2.97-5.51,4.56-8.23.57.09,1.14.18,1.71.27Z"/>
  <path class="cls-2" d="M292.06,104.73c.35,1.35,1.4,3.07.92,3.97-1.05,1.96-2.82,3.55-4.46,5.12-.2.19-1.72-.48-2.05-1.07-.38-.7-.5-1.98-.1-2.59,1.26-1.92,2.81-3.65,4.25-5.45.48,0,.95.02,1.43.03Z"/>
  <path class="cls-2" d="M232.55,118.6c-1.22-1.82-2.41-3.11-2.21-3.38,1.41-1.91,3.11-3.61,4.71-5.38.61.69,1.88,1.73,1.73,2.02-1.07,2.06-2.44,3.98-4.23,6.73Z"/>
  <path class="cls-2" d="M192.33,13.54c.82.36,2.77.73,3.98,1.88.98.93,1.8,3.06,1.39,4.18-.48,1.32-2.25,2.77-3.67,3.03-4.5.83-9.1,1.16-13.66,1.62-2.87.29-5.11-1.03-5.5-3.81-.4-2.79,1.41-4.76,4.22-5.22,4.04-.66,8.13-1.05,13.25-1.68Z"/>
  <path class="cls-2" d="M147.79,38.04c-1.74-1.6-3.51-2.57-4.15-4.04-.48-1.1.01-3.39.92-4.19,2.96-2.6,6.23-4.89,9.54-7.06,2.43-1.59,4.6-.42,6.21,1.57,1.73,2.13,1.2,4.46-.77,5.93-3.62,2.7-7.53,5.02-11.75,7.78Z"/>
  <path class="cls-2" d="M132.56,46.7c-2.67,3.29-4.97,7.02-8.15,9.71-2.07,1.75-6.07-1.74-4.83-4.29,1.59-3.26,3.84-6.38,6.42-8.93,1.9-1.88,5.65.26,6.55,3.51Z"/>
  <path class="cls-1" d="M369.82,256.25c-6.91,9.87-13.22,19.24-19.92,28.33-3.3,4.48-8.86,5.32-12.62,2.65-4.01-2.85-4.95-7.72-1.89-12.67,3.47-5.62,7.32-11.01,11.11-16.42.58-.83,1.7-1.78,2.59-1.8,6.68-.15,13.37-.08,20.74-.08Z"/>
  <path class="cls-1" d="M339.62,425.29c3.35,7.05,7.05,13.96,9.92,21.2,1.6,4.05-1.03,8.95-4.78,11.28-4.58,2.85-9.51,2.84-13.31-.05-3.76-2.85-5.66-7.86-3.67-12.39,2.99-6.8,6.69-13.29,10.09-19.91.58-.05,1.16-.09,1.74-.14Z"/>
</svg>