<?xml version="1.0" encoding="UTF-8"?>
<svg id="Layer_1" data-name="Layer 1" xmlns="http://www.w3.org/2000/svg" width="568.23" height="491.29" viewBox="0 0 568.23 491.29">
  <defs>
    <style>
      .cls-1 {
        fill: #000;
      }

      .cls-1, .cls-2 {
        stroke-width: 0px;
      }

      .cls-2 {
        fill: #fff;
      }
    </style>
  </defs>
  <path class="cls-1" d="M147.89,491.17c6.08-10.97,11.68-21.25,17.44-31.44,6.45-11.42,13.04-22.76,19.55-34.14.49-.86.92-1.77,1.31-2.69,1.2-2.88.28-5.2-2.2-6.8-2.45-1.58-4.97-1.17-6.68,1.1-3.38,4.48-6.48,9.18-9.75,13.75-13.21,18.51-26.48,36.97-39.62,55.52-2.42,3.42-5.09,4.94-9.54,4.81-13.24-.38-26.5-.13-39.74-.13-1.33,0-2.67,0-4,0-.09-.23-.19-.47-.28-.7,1.05-.72,2.07-1.49,3.16-2.16,14.34-8.87,28.69-17.73,43.04-26.6.64-.39,1.28-.79,1.9-1.21,3.44-2.35,4.55-5.15,3.09-7.8-1.67-3.04-5.55-3.96-9.23-1.97-7.36,3.98-14.63,8.13-22,12.1-16.82,9.07-33.65,18.12-50.55,27.04-1.77.93-4.05,1.24-6.09,1.27-10.25.13-20.5.03-30.75.09-2.96.02-5.66-.46-6.68-3.6-1.03-3.17,1.34-4.68,3.54-6.26,19.6-14.03,39.61-27.53,58.67-42.27,42.82-33.13,78.69-72.65,106.38-119.33,6.3-10.62,12.25-21.48,17.85-32.49,8.35-16.42,20.99-26.69,39.47-29.24.48-.07.95-.18,2.46-.47-2.89-7.8-5.55-15.38-8.7-22.75-.31-.72-3.74-.1-6.39-.1,2.48,6.48,4.64,12.12,6.58,17.2-6.44,2.85-12.65,5.11-18.37,8.26-9.09,5.01-14.69,13.35-19.42,22.3-3.15,5.96-6.16,12-9.38,17.92-.59,1.08-1.74,2.41-2.81,2.59-19.04,3.2-36.91.96-52.23-12.01-20.71-17.55-26.86-46.45-14.58-69.19,2.17-4.03,5.09-7.71,8.02-11.26,1.74-2.11,1.87-3.54.23-5.77-9.61-13.07-13.28-27.73-9.95-43.6,4.73-22.52,18.38-37.26,40.64-43.48,4.02-1.12,5.02-2.49,4.79-6.7-2-36.36,30.52-62.09,65.89-52.35,1.66.46,3.32.94,5.52,1.57,1.83-21.5,12.31-37.62,29.73-49.3C260.42,2.66,274.17-.55,288.78.08c29.29,1.25,59.47,23.99,63.07,59.92,18.27-5.64,35.89-5.42,51.31,7.39,15.07,12.52,21.11,28.92,18.95,48.57,2.37.76,4.72,1.49,7.06,2.28,36.94,12.5,50.72,53.73,28.51,85.79-1.95,2.81-1.51,4.25.44,6.58,16.03,19.21,18.38,42.26,6.63,63.42-11.61,20.92-35.13,32.52-58.56,30.1-6.71-.69-9.87-3.52-12.51-8.93-3.34-6.84-6.88-13.62-10.95-20.04-6.75-10.63-16.43-17.63-28.63-21.02-1.2-.33-2.39-.7-3.58-1.08-.22-.07-.4-.28-1.04-.76,2.13-5.36,4.31-10.87,6.49-16.34-5.11-3.22-5.26-3.28-7.44,2.01-2.61,6.3-4.93,12.72-7.52,19.45,4.05.86,7.24,1.36,10.33,2.22,12.52,3.52,21.99,11.06,28.47,22.27,10.31,17.83,19.8,36.17,30.88,53.51,22.78,35.66,51.54,66.12,83.89,93.29,21.64,18.18,44.29,35,67.73,50.78,1.65,1.11,3.51,2.17,4.65,3.71.92,1.23,1.63,3.47,1.11,4.7-.59,1.4-2.53,2.63-4.12,3.09-1.85.53-3.96.15-5.96.15-35.37,0-70.75-.04-106.12.05-2.96,0-5.23-.71-7.3-2.84-14.01-14.43-28.09-28.8-42.15-43.19-.44-.45-.84-.92-1.27-1.38-3.39-3.55-6.59-4.31-9.09-2.16-2.36,2.03-2.15,4.58.64,8.68,5.77,8.46,11.57,16.91,17.27,25.42,3.24,4.84,6.3,9.81,9.75,15.2-1.72.09-2.78.19-3.84.19-22.75.02-45.5-.04-68.25.12-3.15.02-4.66-1.05-5.81-3.82-3.91-9.46-8.01-18.85-12.06-28.26-.79-1.83-1.57-3.69-2.58-5.41-1.63-2.78-4.14-3.66-7.06-2.31-2.74,1.27-4.43,3.62-3.46,6.68,1.53,4.87,3.49,9.61,5.28,14.4.35.94.91,1.83,1.08,2.79.54,3.07,4.61,6.2.08,9.24-3.73,2.5-11.18,1.32-14.13-2.22-1.03-1.24-1.85-2.67-2.66-4.07-1.81-3.11-4.22-4.95-8.01-3.92-3.45.94-5.32,3.52-5.26,7.65.15,10.81.09,9.07-9.41,9.1-29.25.09-58.5.06-87.75.08-1.24,0-2.48,0-4.42,0,1.39-5.22,2.57-10.12,4.01-14.93,2.53-8.5,5.22-16.95,7.84-25.41,1.5-4.83-1.65-9.34-6.25-8.23-2.01.49-4.01,2.77-5.18,4.74-6.31,10.63-12.28,21.46-18.5,32.14-6.88,11.82-6.95,11.78-20.41,11.72-1.37,0-2.73,0-5.08,0ZM335.23,198.52c-6.45-.19-9.17,4.27-11.46,9.2-6.24,13.43-10.35,27.56-13.44,42-1.25,5.86-2.04,11.82-3.32,17.67-.79,3.59-3.82,5.69-6.74,5.22-3.35-.53-5.41-3.2-5.03-7.11.51-5.22.89-10.51,2.09-15.58,3.33-14.08,7.08-28.06,10.58-42.1.29-1.16.46-2.91-.18-3.65-6.47-7.46-5.23-11.87,4.08-13.87,7.42-1.6,12.79-9.07,11.79-16.43-.97-7.19-7.17-12.01-14.95-11.66-.59.03-1.18-.16-1.77-.24.24-.27.48-.55.72-.82-1.78-2.02-3.36-4.27-5.38-6.02-5.15-4.49-7.51-9.92-6.11-16.68.77-3.72,4.13-6.47,7.03-6.15,3.2.35,4.79,2.7,4.88,7.21.11,5.19,2.01,7.33,7.12,8.47,1.45.32,3.15.94,4.05,2,2.44,2.88,5.43,4.32,9.08,4.5,7.68.38,14.17-3.75,17.55-11.07,3.48-7.53,2.03-16.01-3.78-22.25-5.62-6.02-12.72-7.77-20.08-4.91-1.31.51-2.59,1.08-4.13,1.73,0-2.61.12-4.73-.02-6.84-.55-8.46-7.32-16.12-15.62-17.23-2.33-.31-3.4-1.29-4.52-3.11-4.88-7.88-14.32-9.78-21.21-3.84-2.66,2.29-4.14,5.97-6.39,9.37-13.88,1.15-17.85,5.45-19.36,21.19-3.74-.61-7.53-1.93-11.23-1.71-9.71.58-17.43,8.99-17.77,18.57-.36,10.12,6.97,19.79,16.39,21.34,5.15.85,9.97-.3,12.86-4.91,1.38-2.2,2.72-2.61,4.95-2.58,3.61.06,6.66-1.14,8.1-4.84,1.06-2.73,2.75-4.66,5.92-3.79,3.17.87,4.58,3.31,4.53,6.53-.09,5.44-3.61,8.48-7.8,11.09-1.08.67-2.45,1.56-2.78,2.63-.73,2.38-2.14,2.8-4.39,2.98-8.52.69-13.71,7.01-12.28,14.98,1.26,7.02,5.78,11.04,12.56,12.84,5.14,1.37,7.05,6.67,3.37,10.53-2.6,2.73-2.25,4.92-1.19,7.94,6.25,17.86,10.42,36.21,12.45,55.03.19,1.76.21,4.26-.82,5.26-1.59,1.54-4.23,3-6.29,2.84-3.44-.27-4.46-3.52-4.94-6.64-2.98-19.46-7.53-38.49-15.57-56.55-2.41-5.42-4.95-10.82-12.29-10.77.25-1.24.43-2.09.59-2.94,1.41-7.8-.74-11.93-7.91-15.56-.77-.39-1.29-1.4-1.75-2.22-4.69-8.55-15.34-9.89-22.07-2.76-2.36,2.5-4.05,2.24-5.36-.91-1.45-3.48-.25-6.46,2.22-8.86,2.44-2.37,2.26-4.63.77-7.37-2.99-5.5-9.37-8.62-16.22-7.73-7.12.93-13.1,6.24-14.68,13.18-.46,2.02-.66,4.11-1,6.31-.92-.06-1.65-.08-2.38-.15-7.5-.74-13.28,2.08-16.84,8.7-3.75,6.97-2.9,13.81,1.77,20.06,4.11,5.5,12.09,7.28,17.46,4.22,2.54-1.45,3.77-3.26,3.01-6.47-.35-1.47.27-4.03,1.35-4.75,1.36-.91,3.84-1.05,5.48-.48,3.72,1.29,6.21,5.71,4.81,9.84-1.25,3.72-3.83,7.09-6.3,10.25-1.44,1.84-2.23,3.22-1.53,5.64,2.79,9.7,15.97,13.68,24.31,7.26,2.59-2,4.03-4.06,1.54-7.14-.61-.75-.92-1.77-1.24-2.71-2.09-6.19,1.03-13.99,6.4-15.29,1.55-.38,3.56.41,5.11,1.17.51.25.63,2.29.23,3.21-1.55,3.63-.95,6.83,1.39,9.81,2.43,3.1,6.02,4.41,9.36,3.01,4.7-1.96,6.29.83,7.5,3.96,3.53,9.19,7.45,18.33,9.9,27.82,3.08,11.9,4.85,24.14,7.26,36.61.09,0,.81.13,1.53.13,23.5.02,47-.04,70.5.12,3.42.02,3.67-1.74,4.05-4.29,1.46-9.87,2.61-19.83,4.8-29.54,2.56-11.32,5.96-22.46,11.94-32.59,1.35-2.29,2.66-3.39,5.67-2.32,3.52,1.26,7.21.81,10.04-2.18,2.8-2.96,2.88-6.42,1.85-10.15-.32-1.16-.55-3.21.02-3.59,1.3-.86,3.43-1.69,4.67-1.18,2.05.84,4.16,2.42,5.36,4.27,3.01,4.63,2.36,9.42-.3,14.17-.64,1.14-.88,3.33-.21,4.23,3.65,4.88,8.85,6.23,14.68,5.35,5.34-.81,9.22-3.62,11.18-8.8,1.02-2.7.95-4.77-1.8-6.77-4.63-3.35-7.03-8.05-6.25-13.98.5-3.85,3.33-6.69,6.78-6.92,3.62-.24,5.23,1.94,4.87,5.54-.17,1.72.47,4.02,1.6,5.28,2.5,2.76,6,3.39,9.66,2.74,8.04-1.45,13.62-8.86,13.22-17.51-.4-8.78-7.13-16.11-15.34-16.66-1.82-.12-3.66-.02-5.73-.02.36-6.62-2.2-11.67-6.92-15.74-7.06-6.09-19.64-4.64-24.25,2.85-1.68,2.74-2.22,5.2.32,8.11,1.65,1.89,2.68,4.76,2.89,7.28.12,1.5-1.79,3.29-3.1,4.64-.19.19-2.37-1.24-3.34-2.21-6.4-6.41-17.15-4.93-21.36,2.93-.57,1.06-1.73,2.07-2.85,2.5-4.53,1.77-7.38,5.3-7.43,10.2-.02,2.71.51,5.43.85,8.63ZM231.85,272.07c-12.58,2.81-22.5,7.96-26.8,20.66-6.63,19.6-15.2,38.28-27.13,55.3-2.16,3.08-2.67,6.41-1.37,9.95,1.05,2.87.44,5.19-1.63,7.52-6.04,6.83-11.88,13.84-17.8,20.78-5.91,6.94-11.9,13.82-17.68,20.88-3.11,3.79-2.44,8.81,1.19,12.1,3.76,3.4,8.38,3.44,12.12,0,1.28-1.18,2.4-2.55,3.49-3.91,7.25-9.08,14.51-18.15,21.68-27.3,2.48-3.17,5.17-5.17,9.56-4.21,3.76.82,6.53-1.2,8.38-4.36,1.07-1.82,1.82-3.83,2.75-5.74,2.41-4.94,4.66-9.97,7.32-14.77,2.36-4.25,6.2-5.71,9.65-4.22,3.58,1.55,5,5.07,3.88,9.84-.37,1.58-1,3.09-1.42,4.65-1.61,5.89,1.16,11.45,6.59,13.28,5.12,1.72,10.28-.89,12.55-6.52,1.31-3.24,2.36-6.58,3.52-9.88,1.2-3.39,3.45-5.32,7.16-5.62,4.76-.39,7.42-3.45,8.48-7.78.76-3.13.81-6.43,1.32-9.63.33-2.07.65-4.22,1.46-6.13,1.42-3.36,5.24-5.24,8.58-4.62,3.83.71,6.34,3.51,6.65,7.51.08,1.12.02,2.25-.03,3.37-.49,11.99-1.05,23.97-1.48,35.96-.2,5.65,2.32,9.61,7.03,10.5,3.82.72,4.87,2.96,4.87,6.33,0,5.25.03,10.5.03,15.75,0,5.62-.17,11.25.03,16.87.21,5.96,4.5,10.09,9.97,9.99,5.47-.1,8.92-4.06,8.87-10.32-.02-1.99-.27-3.99-.5-5.97-1.29-10.79-2.57-21.59-3.96-32.37-.41-3.23-.02-5.7,3.22-7.53,4.67-2.64,5.91-7.13,5.35-12.25-1.06-9.69-2.15-19.37-3.15-29.07-.41-3.96,1.44-7,4.85-8.43,3.46-1.45,7.32-.78,9.57,2.03,1.14,1.42,1.96,3.2,2.51,4.95,2.54,8.09,4.82,16.27,7.46,24.33.78,2.39,1.92,5.41,3.84,6.51,3.89,2.24,5.94,5.55,7.84,9.22,2.8,5.44,5.51,10.93,8.45,16.3,2.84,5.19,7.99,6.94,12.63,4.58,4.73-2.41,6.49-7.98,3.99-13.22-1.13-2.36-2.62-4.54-3.97-6.79-2.83-4.71-5.83-9.33-8.43-14.17-.85-1.57-.71-3.7-.92-5.58-.4-3.64-.05-7.53-1.21-10.89-2.37-6.83-5.59-13.36-8.36-20.05-.61-1.47-1.4-3.26-1.06-4.64.42-1.71,1.62-3.87,3.07-4.5,1.19-.52,3.83.41,4.78,1.57,1.94,2.38,3.1,5.37,4.74,8.02.61.98,1.53,2.15,2.52,2.42,3.57.96,5.38,3.46,6.52,6.65,1.22,3.41,2.21,6.89,3.47,10.29,1.37,3.7,3.41,6.77,7.21,8.68,2.44,1.23,4.93,3.04,6.48,5.24,6.04,8.57,11.72,17.4,17.53,26.14,1.87,2.81,3.53,5.78,5.61,8.41,3.41,4.32,9.15,5.06,12.98,1.97,3.99-3.21,4.55-8.63,1.33-13.07-.66-.91-1.41-1.75-2.13-2.61-6.68-7.93-13.39-15.84-19.99-23.83-.97-1.18-2.2-2.96-1.94-4.18.84-3.94-.98-6.77-2.98-9.68-9.83-14.26-18.09-29.33-23.8-45.74-1.72-4.94-3.45-9.97-5.96-14.53-4.88-8.89-13.5-12.21-23.12-14.73-.57,4.45-1.05,8.23-1.51,11.85,2.07.77,3.98,1.03,5.27,2.06,2.02,1.61,4.77,3.61,5,5.69.17,1.52-2.95,4.03-5.1,5.03-3.47,1.62-7.29,2.59-11.06,3.43-19.54,4.39-39.39,5.26-59.27,4.03-11.31-.7-22.58-2.41-33.79-4.21-4.21-.68-8.43-2.42-12.2-4.5-4.38-2.42-4.06-6.14.31-8.56,1.63-.9,3.51-1.33,5.15-2.2.84-.45,2.03-1.42,2.01-2.11-.14-3.31-.64-6.61-1.04-10.22ZM267.15,446.78c.3-7.18-5.72-13.77-12.75-13.96-6.91-.19-13.39,5.87-13.63,12.75-.26,7.21,5.51,13.36,12.88,13.74,7.15.37,13.2-5.24,13.5-12.53ZM421.86,432.74c-.05,7.15,5.83,13.23,12.9,13.33,7.15.1,12.94-5.46,13.08-12.57.15-7.21-6.04-13.71-13.01-13.68-6.79.03-12.92,6.15-12.97,12.92ZM375.36,432.44c-.03-2.93-2.63-5.54-5.47-5.51-2.74.03-5.06,2.5-5.05,5.4,0,2.97,2.5,5.46,5.44,5.43,2.85-.04,5.12-2.41,5.09-5.31Z"/>
  <path class="cls-2" d="M335.23,198.52c-.34-3.2-.88-5.92-.85-8.63.04-4.9,2.89-8.43,7.43-10.2,1.12-.44,2.28-1.45,2.85-2.5,4.21-7.85,14.96-9.34,21.36-2.93.97.97,3.16,2.4,3.34,2.21,1.32-1.34,3.22-3.13,3.1-4.64-.2-2.52-1.24-5.4-2.89-7.28-2.54-2.91-2.01-5.37-.32-8.11,4.61-7.49,17.18-8.94,24.25-2.85,4.71,4.07,7.27,9.12,6.92,15.74,2.08,0,3.91-.1,5.73.02,8.21.55,14.94,7.89,15.34,16.66.4,8.65-5.19,16.06-13.22,17.51-3.66.66-7.16.03-9.66-2.74-1.14-1.26-1.78-3.56-1.6-5.28.36-3.6-1.25-5.78-4.87-5.54-3.45.23-6.27,3.07-6.78,6.92-.78,5.93,1.62,10.63,6.25,13.98,2.76,1.99,2.83,4.07,1.8,6.77-1.96,5.18-5.84,7.99-11.18,8.8-5.82.88-11.03-.47-14.68-5.35-.67-.89-.43-3.09.21-4.23,2.66-4.75,3.31-9.53.3-14.17-1.2-1.85-3.31-3.43-5.36-4.27-1.24-.51-3.36.32-4.67,1.18-.57.38-.34,2.42-.02,3.59,1.03,3.73.95,7.19-1.85,10.15-2.83,2.99-6.52,3.43-10.04,2.18-3.02-1.08-4.32.03-5.67,2.32-5.98,10.13-9.38,21.27-11.94,32.59-2.19,9.71-3.34,19.67-4.8,29.54-.38,2.55-.63,4.31-4.05,4.29-23.5-.16-47-.1-70.5-.12-.72,0-1.44-.12-1.53-.13-2.41-12.48-4.18-24.71-7.26-36.61-2.45-9.5-6.37-18.63-9.9-27.82-1.2-3.13-2.79-5.92-7.5-3.96-3.35,1.4-6.93.08-9.36-3.01-2.34-2.98-2.94-6.18-1.39-9.81.4-.93.28-2.96-.23-3.21-1.55-.76-3.56-1.54-5.11-1.17-5.37,1.3-8.49,9.1-6.4,15.29.32.94.63,1.96,1.24,2.71,2.49,3.08,1.05,5.15-1.54,7.14-8.34,6.42-21.52,2.45-24.31-7.26-.7-2.42.09-3.79,1.53-5.64,2.47-3.16,5.05-6.53,6.3-10.25,1.39-4.13-1.09-8.55-4.81-9.84-1.64-.57-4.12-.44-5.48.48-1.08.73-1.69,3.28-1.35,4.75.75,3.21-.48,5.02-3.01,6.47-5.37,3.06-13.34,1.28-17.46-4.22-4.67-6.25-5.52-13.09-1.77-20.06,3.57-6.62,9.34-9.44,16.84-8.7.73.07,1.46.09,2.38.15.34-2.2.53-4.28,1-6.31,1.58-6.93,7.56-12.25,14.68-13.18,6.85-.89,13.23,2.23,16.22,7.73,1.49,2.74,1.67,5-.77,7.37-2.47,2.4-3.67,5.38-2.22,8.86,1.31,3.14,3,3.4,5.36.91,6.74-7.13,17.38-5.79,22.07,2.76.45.82.98,1.84,1.75,2.22,7.18,3.63,9.32,7.76,7.91,15.56-.15.85-.34,1.7-.59,2.94,7.34-.05,9.88,5.35,12.29,10.77,8.04,18.06,12.6,37.09,15.57,56.55.48,3.12,1.5,6.37,4.94,6.64,2.06.16,4.7-1.3,6.29-2.84,1.03-.99,1-3.5.82-5.26-2.03-18.82-6.2-37.17-12.45-55.03-1.06-3.02-1.41-5.21,1.19-7.94,3.68-3.86,1.77-9.16-3.37-10.53-6.78-1.81-11.3-5.82-12.56-12.84-1.43-7.97,3.75-14.29,12.28-14.98,2.25-.18,3.65-.59,4.39-2.98.33-1.07,1.7-1.95,2.78-2.63,4.19-2.61,7.71-5.65,7.8-11.09.05-3.23-1.36-5.66-4.53-6.53-3.16-.87-4.86,1.06-5.92,3.79-1.43,3.7-4.48,4.9-8.1,4.84-2.23-.04-3.57.37-4.95,2.58-2.89,4.61-7.71,5.76-12.86,4.91-9.42-1.55-16.75-11.22-16.39-21.34.34-9.58,8.06-17.99,17.77-18.57,3.7-.22,7.5,1.09,11.23,1.71,1.51-15.74,5.49-20.05,19.36-21.19,2.25-3.4,3.73-7.07,6.39-9.37,6.9-5.93,16.34-4.03,21.21,3.84,1.12,1.82,2.19,2.79,4.52,3.11,8.3,1.12,15.07,8.78,15.62,17.23.14,2.11.02,4.23.02,6.84,1.54-.65,2.82-1.22,4.13-1.73,7.36-2.86,14.46-1.11,20.08,4.91,5.82,6.23,7.26,14.72,3.78,22.25-3.38,7.32-9.86,11.45-17.55,11.07-3.65-.18-6.64-1.62-9.08-4.5-.9-1.06-2.6-1.67-4.05-2-5.11-1.14-7.01-3.28-7.12-8.47-.09-4.51-1.68-6.86-4.88-7.21-2.89-.32-6.26,2.44-7.03,6.15-1.4,6.76.96,12.19,6.11,16.68,2.01,1.75,3.6,4,5.38,6.02-.24.27-.48.55-.72.82.59.09,1.18.27,1.77.24,7.77-.35,13.98,4.47,14.95,11.66,1,7.36-4.37,14.83-11.79,16.43-9.31,2-10.55,6.41-4.08,13.87.64.73.46,2.49.18,3.65-3.5,14.04-7.25,28.02-10.58,42.1-1.2,5.08-1.58,10.37-2.09,15.58-.38,3.91,1.68,6.58,5.03,7.11,2.92.46,5.96-1.63,6.74-5.22,1.28-5.85,2.07-11.81,3.32-17.67,3.09-14.44,7.2-28.56,13.44-42,2.29-4.93,5.01-9.39,11.46-9.2ZM290.9,205.48h-.05c0-6.5.06-13-.02-19.49-.05-3.71-2.64-6.37-5.94-6.41-3.22-.04-5.91,2.76-5.91,6.44-.02,12.74.01,25.49.12,38.23.04,4.54,2.4,7.3,5.84,7.22,3.53-.08,5.93-3.12,5.96-7.62.03-6.12,0-12.24,0-18.37Z"/>
  <path class="cls-2" d="M231.85,272.07c.41,3.61.91,6.91,1.04,10.22.03.69-1.16,1.66-2.01,2.11-1.64.87-3.53,1.3-5.15,2.2-4.37,2.41-4.68,6.13-.31,8.56,3.76,2.08,7.98,3.83,12.2,4.5,11.2,1.8,22.48,3.51,33.79,4.21,19.88,1.22,39.73.36,59.27-4.03,3.76-.85,7.59-1.81,11.06-3.43,2.15-1,5.27-3.51,5.1-5.03-.23-2.08-2.99-4.08-5-5.69-1.29-1.03-3.19-1.29-5.27-2.06.46-3.62.94-7.4,1.51-11.85,9.63,2.52,18.25,5.84,23.12,14.73,2.5,4.56,4.24,9.59,5.96,14.53,5.71,16.42,13.97,31.48,23.8,45.74,2.01,2.91,3.82,5.74,2.98,9.68-.26,1.21.97,3,1.94,4.18,6.6,8,13.32,15.9,19.99,23.83.72.86,1.47,1.71,2.13,2.61,3.22,4.44,2.66,9.86-1.33,13.07-3.84,3.09-9.57,2.34-12.98-1.97-2.08-2.63-3.74-5.6-5.61-8.41-5.81-8.74-11.49-17.57-17.53-26.14-1.55-2.2-4.03-4.02-6.48-5.24-3.8-1.91-5.84-4.98-7.21-8.68-1.26-3.39-2.25-6.88-3.47-10.29-1.14-3.19-2.95-5.69-6.52-6.65-1-.27-1.92-1.44-2.52-2.42-1.64-2.64-2.8-5.64-4.74-8.02-.94-1.15-3.58-2.09-4.78-1.57-1.45.63-2.65,2.79-3.07,4.5-.34,1.38.45,3.17,1.06,4.64,2.77,6.69,5.99,13.23,8.36,20.05,1.17,3.36.82,7.25,1.21,10.89.21,1.89.07,4.01.92,5.58,2.6,4.84,5.6,9.45,8.43,14.17,1.35,2.25,2.84,4.43,3.97,6.79,2.5,5.24.75,10.81-3.99,13.22-4.64,2.37-9.79.61-12.63-4.58-2.94-5.37-5.64-10.86-8.45-16.3-1.89-3.68-3.95-6.98-7.84-9.22-1.91-1.1-3.06-4.13-3.84-6.51-2.64-8.06-4.92-16.23-7.46-24.33-.55-1.75-1.37-3.54-2.51-4.95-2.25-2.8-6.11-3.47-9.57-2.03-3.41,1.42-5.25,4.47-4.85,8.43,1,9.69,2.08,19.38,3.15,29.07.56,5.12-.68,9.61-5.35,12.25-3.24,1.83-3.64,4.31-3.22,7.53,1.38,10.78,2.66,21.58,3.96,32.37.24,1.98.49,3.98.5,5.97.05,6.27-3.4,10.22-8.87,10.32-5.47.1-9.76-4.02-9.97-9.99-.2-5.62-.03-11.25-.03-16.87,0-5.25-.03-10.5-.03-15.75,0-3.37-1.05-5.61-4.87-6.33-4.71-.89-7.23-4.85-7.03-10.5.42-11.99.98-23.97,1.48-35.96.05-1.12.11-2.25.03-3.37-.3-4-2.81-6.8-6.65-7.51-3.35-.62-7.16,1.27-8.58,4.62-.81,1.91-1.13,4.06-1.46,6.13-.51,3.2-.56,6.5-1.32,9.63-1.05,4.33-3.71,7.39-8.48,7.78-3.71.3-5.97,2.23-7.16,5.62-1.16,3.3-2.21,6.64-3.52,9.88-2.27,5.64-7.44,8.25-12.55,6.52-5.43-1.83-8.21-7.4-6.59-13.28.43-1.56,1.05-3.08,1.42-4.65,1.12-4.77-.3-8.3-3.88-9.84-3.45-1.49-7.29-.03-9.65,4.22-2.66,4.8-4.91,9.83-7.32,14.77-.93,1.91-1.68,3.92-2.75,5.74-1.85,3.15-4.61,5.18-8.38,4.36-4.39-.96-7.07,1.04-9.56,4.21-7.17,9.14-14.43,18.22-21.68,27.3-1.09,1.36-2.21,2.73-3.49,3.91-3.74,3.44-8.36,3.4-12.12,0-3.64-3.29-4.3-8.3-1.19-12.1,5.78-7.05,11.77-13.93,17.68-20.88,5.91-6.94,11.76-13.95,17.8-20.78,2.07-2.34,2.67-4.65,1.63-7.52-1.29-3.55-.79-6.87,1.37-9.95,11.93-17.02,20.51-35.69,27.13-55.3,4.29-12.7,14.21-17.85,26.8-20.66Z"/>
  <path class="cls-2" d="M267.15,446.78c-.3,7.29-6.35,12.91-13.5,12.53-7.37-.39-13.13-6.54-12.88-13.74.24-6.88,6.72-12.93,13.63-12.75,7.03.19,13.05,6.78,12.75,13.96Z"/>
  <path class="cls-2" d="M421.86,432.74c.05-6.77,6.18-12.89,12.97-12.92,6.97-.03,13.16,6.47,13.01,13.68-.14,7.11-5.93,12.67-13.08,12.57-7.07-.1-12.95-6.17-12.9-13.33Z"/>
  <path class="cls-2" d="M375.36,432.44c.03,2.9-2.24,5.28-5.09,5.31-2.93.04-5.43-2.46-5.44-5.43,0-2.89,2.31-5.37,5.05-5.4,2.84-.03,5.44,2.58,5.47,5.51Z"/>
  <path class="cls-1" d="M290.9,205.48c0,6.12.02,12.24,0,18.37-.02,4.51-2.43,7.54-5.96,7.62-3.44.08-5.8-2.68-5.84-7.22-.1-12.74-.13-25.49-.12-38.23,0-3.68,2.7-6.48,5.91-6.44,3.29.04,5.89,2.7,5.94,6.41.09,6.5.02,12.99.02,19.49h.05Z"/>
</svg>